<?xml version="1.0" encoding="utf-8"?>
<!-- Generator: Adobe Illustrator 16.0.0, SVG Export Plug-In . SVG Version: 6.00 Build 0)  -->
<!DOCTYPE svg PUBLIC "-//W3C//DTD SVG 1.1//EN" "http://www.w3.org/Graphics/SVG/1.1/DTD/svg11.dtd">
<svg version="1.1" xmlns="http://www.w3.org/2000/svg" xmlns:xlink="http://www.w3.org/1999/xlink" x="0px" y="0px" width="1280px"
	 height="800px" viewBox="0 0 1280 800" enable-background="new 0 0 1280 800" xml:space="preserve">
<g id="Layer_1">
	<g>
		<defs>
			<rect id="SVGID_1_" width="1280" height="800"/>
		</defs>
		<clipPath id="SVGID_2_">
			<use xlink:href="#SVGID_1_"  overflow="visible"/>
		</clipPath>
		<g clip-path="url(#SVGID_2_)">
			<line fill="none" stroke="#FAFAFA" stroke-width="3" stroke-miterlimit="10" x1="830.108" y1="-848" x2="-620.5" y2="602.608"/>
			
				<line fill="none" stroke="#FAFAFA" stroke-width="3" stroke-miterlimit="10" x1="837.791" y1="-840.317" x2="-612.817" y2="610.291"/>
			
				<line fill="none" stroke="#FAFAFA" stroke-width="3" stroke-miterlimit="10" x1="845.473" y1="-832.635" x2="-605.135" y2="617.973"/>
			
				<line fill="none" stroke="#FAFAFA" stroke-width="3" stroke-miterlimit="10" x1="853.156" y1="-824.952" x2="-597.452" y2="625.656"/>
			
				<line fill="none" stroke="#FAFAFA" stroke-width="3" stroke-miterlimit="10" x1="860.838" y1="-817.27" x2="-589.77" y2="633.338"/>
			
				<line fill="none" stroke="#FAFAFA" stroke-width="3" stroke-miterlimit="10" x1="868.521" y1="-809.587" x2="-582.087" y2="641.021"/>
			
				<line fill="none" stroke="#FAFAFA" stroke-width="3" stroke-miterlimit="10" x1="876.203" y1="-801.905" x2="-574.404" y2="648.703"/>
			
				<line fill="none" stroke="#FAFAFA" stroke-width="3" stroke-miterlimit="10" x1="883.886" y1="-794.222" x2="-566.723" y2="656.386"/>
			
				<line fill="none" stroke="#FAFAFA" stroke-width="3" stroke-miterlimit="10" x1="891.568" y1="-786.54" x2="-559.039" y2="664.068"/>
			
				<line fill="none" stroke="#FAFAFA" stroke-width="3" stroke-miterlimit="10" x1="899.251" y1="-778.857" x2="-551.357" y2="671.751"/>
			
				<line fill="none" stroke="#FAFAFA" stroke-width="3" stroke-miterlimit="10" x1="906.934" y1="-771.174" x2="-543.674" y2="679.434"/>
			
				<line fill="none" stroke="#FAFAFA" stroke-width="3" stroke-miterlimit="10" x1="914.616" y1="-763.492" x2="-535.992" y2="687.116"/>
			
				<line fill="none" stroke="#FAFAFA" stroke-width="3" stroke-miterlimit="10" x1="922.299" y1="-755.809" x2="-528.309" y2="694.799"/>
			
				<line fill="none" stroke="#FAFAFA" stroke-width="3" stroke-miterlimit="10" x1="929.981" y1="-748.126" x2="-520.627" y2="702.481"/>
			
				<line fill="none" stroke="#FAFAFA" stroke-width="3" stroke-miterlimit="10" x1="937.664" y1="-740.444" x2="-512.944" y2="710.164"/>
			
				<line fill="none" stroke="#FAFAFA" stroke-width="3" stroke-miterlimit="10" x1="945.347" y1="-732.762" x2="-505.262" y2="717.847"/>
			
				<line fill="none" stroke="#FAFAFA" stroke-width="3" stroke-miterlimit="10" x1="958.616" y1="-732.063" x2="-491.992" y2="718.545"/>
			
				<line fill="none" stroke="#FAFAFA" stroke-width="3" stroke-miterlimit="10" x1="966.299" y1="-724.38" x2="-484.309" y2="726.228"/>
			
				<line fill="none" stroke="#FAFAFA" stroke-width="3" stroke-miterlimit="10" x1="973.981" y1="-716.698" x2="-476.627" y2="733.91"/>
			
				<line fill="none" stroke="#FAFAFA" stroke-width="3" stroke-miterlimit="10" x1="981.664" y1="-709.016" x2="-468.943" y2="741.593"/>
			
				<line fill="none" stroke="#FAFAFA" stroke-width="3" stroke-miterlimit="10" x1="989.347" y1="-701.333" x2="-461.262" y2="749.275"/>
			
				<line fill="none" stroke="#FAFAFA" stroke-width="3" stroke-miterlimit="10" x1="997.029" y1="-693.65" x2="-453.578" y2="756.958"/>
			
				<line fill="none" stroke="#FAFAFA" stroke-width="3" stroke-miterlimit="10" x1="1004.712" y1="-685.968" x2="-445.896" y2="764.641"/>
			
				<line fill="none" stroke="#FAFAFA" stroke-width="3" stroke-miterlimit="10" x1="1012.395" y1="-678.285" x2="-438.214" y2="772.323"/>
			
				<line fill="none" stroke="#FAFAFA" stroke-width="3" stroke-miterlimit="10" x1="1020.077" y1="-670.603" x2="-430.531" y2="780.006"/>
			
				<line fill="none" stroke="#FAFAFA" stroke-width="3" stroke-miterlimit="10" x1="1027.76" y1="-662.92" x2="-422.849" y2="787.688"/>
			
				<line fill="none" stroke="#FAFAFA" stroke-width="3" stroke-miterlimit="10" x1="1035.442" y1="-655.237" x2="-415.166" y2="795.371"/>
			
				<line fill="none" stroke="#FAFAFA" stroke-width="3" stroke-miterlimit="10" x1="1043.125" y1="-647.555" x2="-407.483" y2="803.053"/>
			
				<line fill="none" stroke="#FAFAFA" stroke-width="3" stroke-miterlimit="10" x1="1050.807" y1="-639.872" x2="-399.801" y2="810.735"/>
			
				<line fill="none" stroke="#FAFAFA" stroke-width="3" stroke-miterlimit="10" x1="1058.49" y1="-632.19" x2="-392.118" y2="818.418"/>
			
				<line fill="none" stroke="#FAFAFA" stroke-width="3" stroke-miterlimit="10" x1="1066.172" y1="-624.507" x2="-384.436" y2="826.101"/>
			
				<line fill="none" stroke="#FAFAFA" stroke-width="3" stroke-miterlimit="10" x1="1073.855" y1="-616.825" x2="-376.753" y2="833.783"/>
			
				<line fill="none" stroke="#FAFAFA" stroke-width="3" stroke-miterlimit="10" x1="1087.125" y1="-616.126" x2="-363.483" y2="834.481"/>
			
				<line fill="none" stroke="#FAFAFA" stroke-width="3" stroke-miterlimit="10" x1="1094.808" y1="-608.444" x2="-355.801" y2="842.164"/>
			
				<line fill="none" stroke="#FAFAFA" stroke-width="3" stroke-miterlimit="10" x1="1102.49" y1="-600.761" x2="-348.118" y2="849.847"/>
			
				<line fill="none" stroke="#FAFAFA" stroke-width="3" stroke-miterlimit="10" x1="1110.172" y1="-593.079" x2="-340.436" y2="857.529"/>
			
				<line fill="none" stroke="#FAFAFA" stroke-width="3" stroke-miterlimit="10" x1="1117.855" y1="-585.396" x2="-332.753" y2="865.212"/>
			
				<line fill="none" stroke="#FAFAFA" stroke-width="3" stroke-miterlimit="10" x1="1125.537" y1="-577.713" x2="-325.07" y2="872.895"/>
			
				<line fill="none" stroke="#FAFAFA" stroke-width="3" stroke-miterlimit="10" x1="1133.221" y1="-570.031" x2="-317.388" y2="880.577"/>
			
				<line fill="none" stroke="#FAFAFA" stroke-width="3" stroke-miterlimit="10" x1="1140.902" y1="-562.348" x2="-309.705" y2="888.26"/>
			
				<line fill="none" stroke="#FAFAFA" stroke-width="3" stroke-miterlimit="10" x1="1148.585" y1="-554.666" x2="-302.023" y2="895.942"/>
			
				<line fill="none" stroke="#FAFAFA" stroke-width="3" stroke-miterlimit="10" x1="1156.268" y1="-546.983" x2="-294.34" y2="903.625"/>
			
				<line fill="none" stroke="#FAFAFA" stroke-width="3" stroke-miterlimit="10" x1="1163.95" y1="-539.301" x2="-286.658" y2="911.308"/>
			
				<line fill="none" stroke="#FAFAFA" stroke-width="3" stroke-miterlimit="10" x1="1171.633" y1="-531.618" x2="-278.975" y2="918.99"/>
			
				<line fill="none" stroke="#FAFAFA" stroke-width="3" stroke-miterlimit="10" x1="1179.315" y1="-523.936" x2="-271.293" y2="926.673"/>
			
				<line fill="none" stroke="#FAFAFA" stroke-width="3" stroke-miterlimit="10" x1="1186.998" y1="-516.253" x2="-263.609" y2="934.355"/>
			
				<line fill="none" stroke="#FAFAFA" stroke-width="3" stroke-miterlimit="10" x1="1194.681" y1="-508.57" x2="-255.928" y2="942.038"/>
			
				<line fill="none" stroke="#FAFAFA" stroke-width="3" stroke-miterlimit="10" x1="1202.363" y1="-500.888" x2="-248.244" y2="949.721"/>
			
				<line fill="none" stroke="#FAFAFA" stroke-width="3" stroke-miterlimit="10" x1="1215.633" y1="-500.189" x2="-234.975" y2="950.419"/>
			
				<line fill="none" stroke="#FAFAFA" stroke-width="3" stroke-miterlimit="10" x1="1223.315" y1="-492.507" x2="-227.293" y2="958.102"/>
			
				<line fill="none" stroke="#FAFAFA" stroke-width="3" stroke-miterlimit="10" x1="1230.998" y1="-484.824" x2="-219.609" y2="965.784"/>
			
				<line fill="none" stroke="#FAFAFA" stroke-width="3" stroke-miterlimit="10" x1="1238.681" y1="-477.142" x2="-211.928" y2="973.467"/>
			
				<line fill="none" stroke="#FAFAFA" stroke-width="3" stroke-miterlimit="10" x1="1246.363" y1="-469.459" x2="-204.244" y2="981.148"/>
			
				<line fill="none" stroke="#FAFAFA" stroke-width="3" stroke-miterlimit="10" x1="1254.046" y1="-461.776" x2="-196.562" y2="988.832"/>
			
				<line fill="none" stroke="#FAFAFA" stroke-width="3" stroke-miterlimit="10" x1="1261.729" y1="-454.094" x2="-188.879" y2="996.514"/>
			
				<line fill="none" stroke="#FAFAFA" stroke-width="3" stroke-miterlimit="10" x1="1269.411" y1="-446.411" x2="-181.197" y2="1004.197"/>
			
				<line fill="none" stroke="#FAFAFA" stroke-width="3" stroke-miterlimit="10" x1="1277.094" y1="-438.729" x2="-173.514" y2="1011.879"/>
			
				<line fill="none" stroke="#FAFAFA" stroke-width="3" stroke-miterlimit="10" x1="1284.776" y1="-431.046" x2="-165.832" y2="1019.562"/>
			
				<line fill="none" stroke="#FAFAFA" stroke-width="3" stroke-miterlimit="10" x1="1292.459" y1="-423.364" x2="-158.149" y2="1027.244"/>
			
				<line fill="none" stroke="#FAFAFA" stroke-width="3" stroke-miterlimit="10" x1="1300.142" y1="-415.681" x2="-150.467" y2="1034.927"/>
			
				<line fill="none" stroke="#FAFAFA" stroke-width="3" stroke-miterlimit="10" x1="1307.824" y1="-407.999" x2="-142.784" y2="1042.609"/>
			
				<line fill="none" stroke="#FAFAFA" stroke-width="3" stroke-miterlimit="10" x1="1315.507" y1="-400.316" x2="-135.102" y2="1050.292"/>
			
				<line fill="none" stroke="#FAFAFA" stroke-width="3" stroke-miterlimit="10" x1="1323.189" y1="-392.633" x2="-127.419" y2="1057.975"/>
			
				<line fill="none" stroke="#FAFAFA" stroke-width="3" stroke-miterlimit="10" x1="1330.871" y1="-384.951" x2="-119.736" y2="1065.657"/>
			
				<line fill="none" stroke="#FAFAFA" stroke-width="3" stroke-miterlimit="10" x1="1344.142" y1="-384.252" x2="-106.467" y2="1066.355"/>
			
				<line fill="none" stroke="#FAFAFA" stroke-width="3" stroke-miterlimit="10" x1="1351.824" y1="-376.57" x2="-98.784" y2="1074.038"/>
			
				<line fill="none" stroke="#FAFAFA" stroke-width="3" stroke-miterlimit="10" x1="1359.507" y1="-368.887" x2="-91.102" y2="1081.721"/>
			
				<line fill="none" stroke="#FAFAFA" stroke-width="3" stroke-miterlimit="10" x1="1367.189" y1="-361.205" x2="-83.419" y2="1089.403"/>
			
				<line fill="none" stroke="#FAFAFA" stroke-width="3" stroke-miterlimit="10" x1="1374.872" y1="-353.522" x2="-75.736" y2="1097.086"/>
			
				<line fill="none" stroke="#FAFAFA" stroke-width="3" stroke-miterlimit="10" x1="1382.555" y1="-345.84" x2="-68.054" y2="1104.769"/>
			
				<line fill="none" stroke="#FAFAFA" stroke-width="3" stroke-miterlimit="10" x1="1390.236" y1="-338.157" x2="-60.371" y2="1112.451"/>
			
				<line fill="none" stroke="#FAFAFA" stroke-width="3" stroke-miterlimit="10" x1="1397.92" y1="-330.475" x2="-52.688" y2="1120.134"/>
			
				<line fill="none" stroke="#FAFAFA" stroke-width="3" stroke-miterlimit="10" x1="1405.602" y1="-322.792" x2="-45.006" y2="1127.816"/>
			
				<line fill="none" stroke="#FAFAFA" stroke-width="3" stroke-miterlimit="10" x1="1413.285" y1="-315.109" x2="-37.323" y2="1135.499"/>
			
				<line fill="none" stroke="#FAFAFA" stroke-width="3" stroke-miterlimit="10" x1="1420.967" y1="-307.427" x2="-29.641" y2="1143.182"/>
			
				<line fill="none" stroke="#FAFAFA" stroke-width="3" stroke-miterlimit="10" x1="1428.649" y1="-299.744" x2="-21.959" y2="1150.863"/>
			
				<line fill="none" stroke="#FAFAFA" stroke-width="3" stroke-miterlimit="10" x1="1436.332" y1="-292.062" x2="-14.275" y2="1158.547"/>
			
				<line fill="none" stroke="#FAFAFA" stroke-width="3" stroke-miterlimit="10" x1="1444.015" y1="-284.379" x2="-6.594" y2="1166.229"/>
			
				<line fill="none" stroke="#FAFAFA" stroke-width="3" stroke-miterlimit="10" x1="1451.697" y1="-276.696" x2="1.09" y2="1173.912"/>
			
				<line fill="none" stroke="#FAFAFA" stroke-width="3" stroke-miterlimit="10" x1="1459.38" y1="-269.014" x2="8.771" y2="1181.594"/>
			
				<line fill="none" stroke="#FAFAFA" stroke-width="3" stroke-miterlimit="10" x1="1472.65" y1="-268.315" x2="22.042" y2="1182.293"/>
			
				<line fill="none" stroke="#FAFAFA" stroke-width="3" stroke-miterlimit="10" x1="1480.332" y1="-260.633" x2="29.725" y2="1189.975"/>
			
				<line fill="none" stroke="#FAFAFA" stroke-width="3" stroke-miterlimit="10" x1="1488.015" y1="-252.95" x2="37.406" y2="1197.658"/>
			
				<line fill="none" stroke="#FAFAFA" stroke-width="3" stroke-miterlimit="10" x1="1495.697" y1="-245.268" x2="45.09" y2="1205.34"/>
			
				<line fill="none" stroke="#FAFAFA" stroke-width="3" stroke-miterlimit="10" x1="1503.38" y1="-237.585" x2="52.771" y2="1213.022"/>
			
				<line fill="none" stroke="#FAFAFA" stroke-width="3" stroke-miterlimit="10" x1="1511.062" y1="-229.903" x2="60.455" y2="1220.705"/>
			
				<line fill="none" stroke="#FAFAFA" stroke-width="3" stroke-miterlimit="10" x1="1518.745" y1="-222.22" x2="68.137" y2="1228.388"/>
			
				<line fill="none" stroke="#FAFAFA" stroke-width="3" stroke-miterlimit="10" x1="1526.428" y1="-214.538" x2="75.82" y2="1236.07"/>
			
				<line fill="none" stroke="#FAFAFA" stroke-width="3" stroke-miterlimit="10" x1="1534.11" y1="-206.855" x2="83.502" y2="1243.753"/>
			
				<line fill="none" stroke="#FAFAFA" stroke-width="3" stroke-miterlimit="10" x1="1541.793" y1="-199.172" x2="91.186" y2="1251.436"/>
			
				<line fill="none" stroke="#FAFAFA" stroke-width="3" stroke-miterlimit="10" x1="1549.476" y1="-191.49" x2="98.867" y2="1259.118"/>
			
				<line fill="none" stroke="#FAFAFA" stroke-width="3" stroke-miterlimit="10" x1="1557.158" y1="-183.807" x2="106.55" y2="1266.801"/>
			
				<line fill="none" stroke="#FAFAFA" stroke-width="3" stroke-miterlimit="10" x1="1564.841" y1="-176.125" x2="114.232" y2="1274.483"/>
			
				<line fill="none" stroke="#FAFAFA" stroke-width="3" stroke-miterlimit="10" x1="1572.523" y1="-168.442" x2="121.915" y2="1282.166"/>
			
				<line fill="none" stroke="#FAFAFA" stroke-width="3" stroke-miterlimit="10" x1="1580.206" y1="-160.76" x2="129.598" y2="1289.849"/>
			
				<line fill="none" stroke="#FAFAFA" stroke-width="3" stroke-miterlimit="10" x1="1587.889" y1="-153.077" x2="137.28" y2="1297.531"/>
			
				<line fill="none" stroke="#FAFAFA" stroke-width="3" stroke-miterlimit="10" x1="1601.158" y1="-152.378" x2="150.551" y2="1298.229"/>
			
				<line fill="none" stroke="#FAFAFA" stroke-width="3" stroke-miterlimit="10" x1="1608.841" y1="-144.696" x2="158.232" y2="1305.912"/>
			
				<line fill="none" stroke="#FAFAFA" stroke-width="3" stroke-miterlimit="10" x1="1616.523" y1="-137.014" x2="165.916" y2="1313.595"/>
			
				<line fill="none" stroke="#FAFAFA" stroke-width="3" stroke-miterlimit="10" x1="1624.206" y1="-129.331" x2="173.598" y2="1321.277"/>
			
				<line fill="none" stroke="#FAFAFA" stroke-width="3" stroke-miterlimit="10" x1="1631.889" y1="-121.648" x2="181.28" y2="1328.96"/>
			
				<line fill="none" stroke="#FAFAFA" stroke-width="3" stroke-miterlimit="10" x1="1639.571" y1="-113.966" x2="188.963" y2="1336.643"/>
			
				<line fill="none" stroke="#FAFAFA" stroke-width="3" stroke-miterlimit="10" x1="1647.254" y1="-106.283" x2="196.646" y2="1344.324"/>
			
				<line fill="none" stroke="#FAFAFA" stroke-width="3" stroke-miterlimit="10" x1="1654.937" y1="-98.601" x2="204.328" y2="1352.008"/>
			
				<line fill="none" stroke="#FAFAFA" stroke-width="3" stroke-miterlimit="10" x1="1662.619" y1="-90.918" x2="212.011" y2="1359.689"/>
			
				<line fill="none" stroke="#FAFAFA" stroke-width="3" stroke-miterlimit="10" x1="1670.301" y1="-83.235" x2="219.693" y2="1367.373"/>
			
				<line fill="none" stroke="#FAFAFA" stroke-width="3" stroke-miterlimit="10" x1="1677.984" y1="-75.553" x2="227.376" y2="1375.055"/>
			
				<line fill="none" stroke="#FAFAFA" stroke-width="3" stroke-miterlimit="10" x1="1685.666" y1="-67.871" x2="235.059" y2="1382.737"/>
			
				<line fill="none" stroke="#FAFAFA" stroke-width="3" stroke-miterlimit="10" x1="1693.35" y1="-60.188" x2="242.741" y2="1390.42"/>
			
				<line fill="none" stroke="#FAFAFA" stroke-width="3" stroke-miterlimit="10" x1="1701.031" y1="-52.505" x2="250.424" y2="1398.103"/>
			
				<line fill="none" stroke="#FAFAFA" stroke-width="3" stroke-miterlimit="10" x1="1708.714" y1="-44.823" x2="258.105" y2="1405.785"/>
			
				<line fill="none" stroke="#FAFAFA" stroke-width="3" stroke-miterlimit="10" x1="1716.396" y1="-37.14" x2="265.789" y2="1413.468"/>
			
				<line fill="none" stroke="#FAFAFA" stroke-width="3" stroke-miterlimit="10" x1="1729.666" y1="-36.442" x2="279.059" y2="1414.166"/>
			
				<line fill="none" stroke="#FAFAFA" stroke-width="3" stroke-miterlimit="10" x1="1737.35" y1="-28.759" x2="286.741" y2="1421.849"/>
			
				<line fill="none" stroke="#FAFAFA" stroke-width="3" stroke-miterlimit="10" x1="1745.031" y1="-21.077" x2="294.424" y2="1429.531"/>
			
				<line fill="none" stroke="#FAFAFA" stroke-width="3" stroke-miterlimit="10" x1="1752.715" y1="-13.394" x2="302.106" y2="1437.214"/>
			
				<line fill="none" stroke="#FAFAFA" stroke-width="3" stroke-miterlimit="10" x1="1760.396" y1="-5.711" x2="309.789" y2="1444.896"/>
			
				<line fill="none" stroke="#FAFAFA" stroke-width="3" stroke-miterlimit="10" x1="1768.079" y1="1.971" x2="317.472" y2="1452.579"/>
			
				<line fill="none" stroke="#FAFAFA" stroke-width="3" stroke-miterlimit="10" x1="1775.762" y1="9.654" x2="325.154" y2="1460.262"/>
			
				<line fill="none" stroke="#FAFAFA" stroke-width="3" stroke-miterlimit="10" x1="1783.444" y1="17.336" x2="332.836" y2="1467.944"/>
			
				<line fill="none" stroke="#FAFAFA" stroke-width="3" stroke-miterlimit="10" x1="1791.127" y1="25.019" x2="340.52" y2="1475.627"/>
			
				<line fill="none" stroke="#FAFAFA" stroke-width="3" stroke-miterlimit="10" x1="1798.81" y1="32.701" x2="348.201" y2="1483.31"/>
			
				<line fill="none" stroke="#FAFAFA" stroke-width="3" stroke-miterlimit="10" x1="1806.492" y1="40.384" x2="355.885" y2="1490.992"/>
			
				<line fill="none" stroke="#FAFAFA" stroke-width="3" stroke-miterlimit="10" x1="1814.175" y1="48.066" x2="363.566" y2="1498.675"/>
			
				<line fill="none" stroke="#FAFAFA" stroke-width="3" stroke-miterlimit="10" x1="1821.857" y1="55.749" x2="371.25" y2="1506.357"/>
			
				<line fill="none" stroke="#FAFAFA" stroke-width="3" stroke-miterlimit="10" x1="1829.54" y1="63.432" x2="378.932" y2="1514.039"/>
			
				<line fill="none" stroke="#FAFAFA" stroke-width="3" stroke-miterlimit="10" x1="1837.223" y1="71.114" x2="386.614" y2="1521.723"/>
			
				<line fill="none" stroke="#FAFAFA" stroke-width="3" stroke-miterlimit="10" x1="1844.905" y1="78.797" x2="394.297" y2="1529.404"/>
			
				<line fill="none" stroke="#FAFAFA" stroke-width="3" stroke-miterlimit="10" x1="1858.175" y1="79.495" x2="407.566" y2="1530.104"/>
			
				<line fill="none" stroke="#FAFAFA" stroke-width="3" stroke-miterlimit="10" x1="1865.857" y1="87.178" x2="415.25" y2="1537.786"/>
			
				<line fill="none" stroke="#FAFAFA" stroke-width="3" stroke-miterlimit="10" x1="1873.54" y1="94.86" x2="422.932" y2="1545.469"/>
			
				<line fill="none" stroke="#FAFAFA" stroke-width="3" stroke-miterlimit="10" x1="1881.223" y1="102.543" x2="430.615" y2="1553.15"/>
			
				<line fill="none" stroke="#FAFAFA" stroke-width="3" stroke-miterlimit="10" x1="1888.905" y1="110.226" x2="438.297" y2="1560.834"/>
			
				<line fill="none" stroke="#FAFAFA" stroke-width="3" stroke-miterlimit="10" x1="1896.588" y1="117.908" x2="445.979" y2="1568.516"/>
			
				<line fill="none" stroke="#FAFAFA" stroke-width="3" stroke-miterlimit="10" x1="1904.271" y1="125.591" x2="453.662" y2="1576.198"/>
			
				<line fill="none" stroke="#FAFAFA" stroke-width="3" stroke-miterlimit="10" x1="1911.953" y1="133.273" x2="461.345" y2="1583.881"/>
			
				<line fill="none" stroke="#FAFAFA" stroke-width="3" stroke-miterlimit="10" x1="1919.636" y1="140.956" x2="469.027" y2="1591.563"/>
			
				<line fill="none" stroke="#FAFAFA" stroke-width="3" stroke-miterlimit="10" x1="1927.318" y1="148.638" x2="476.71" y2="1599.246"/>
			
				<line fill="none" stroke="#FAFAFA" stroke-width="3" stroke-miterlimit="10" x1="1935.001" y1="156.321" x2="484.393" y2="1606.929"/>
			
				<line fill="none" stroke="#FAFAFA" stroke-width="3" stroke-miterlimit="10" x1="1942.684" y1="164.003" x2="492.075" y2="1614.611"/>
			
				<line fill="none" stroke="#FAFAFA" stroke-width="3" stroke-miterlimit="10" x1="1950.365" y1="171.686" x2="499.758" y2="1622.294"/>
			
				<line fill="none" stroke="#FAFAFA" stroke-width="3" stroke-miterlimit="10" x1="1958.049" y1="179.368" x2="507.44" y2="1629.977"/>
			
				<line fill="none" stroke="#FAFAFA" stroke-width="3" stroke-miterlimit="10" x1="1965.73" y1="187.051" x2="515.123" y2="1637.659"/>
			
				<line fill="none" stroke="#FAFAFA" stroke-width="3" stroke-miterlimit="10" x1="1973.414" y1="194.733" x2="522.806" y2="1645.342"/>
			
				<line fill="none" stroke="#FAFAFA" stroke-width="3" stroke-miterlimit="10" x1="1986.684" y1="195.432" x2="536.075" y2="1646.04"/>
			
				<line fill="none" stroke="#FAFAFA" stroke-width="3" stroke-miterlimit="10" x1="1994.366" y1="203.114" x2="543.758" y2="1653.723"/>
			
				<line fill="none" stroke="#FAFAFA" stroke-width="3" stroke-miterlimit="10" x1="2002.049" y1="210.797" x2="551.44" y2="1661.405"/>
			
				<line fill="none" stroke="#FAFAFA" stroke-width="3" stroke-miterlimit="10" x1="2009.73" y1="218.479" x2="559.123" y2="1669.088"/>
			
				<line fill="none" stroke="#FAFAFA" stroke-width="3" stroke-miterlimit="10" x1="2017.414" y1="226.162" x2="566.806" y2="1676.771"/>
			
				<line fill="none" stroke="#FAFAFA" stroke-width="3" stroke-miterlimit="10" x1="2025.096" y1="233.845" x2="574.488" y2="1684.453"/>
			
				<line fill="none" stroke="#FAFAFA" stroke-width="3" stroke-miterlimit="10" x1="2032.778" y1="241.527" x2="582.171" y2="1692.136"/>
			
				<line fill="none" stroke="#FAFAFA" stroke-width="3" stroke-miterlimit="10" x1="2040.461" y1="249.21" x2="589.854" y2="1699.818"/>
			
				<line fill="none" stroke="#FAFAFA" stroke-width="3" stroke-miterlimit="10" x1="2048.144" y1="256.893" x2="597.536" y2="1707.501"/>
			
				<line fill="none" stroke="#FAFAFA" stroke-width="3" stroke-miterlimit="10" x1="2055.826" y1="264.575" x2="605.219" y2="1715.184"/>
			
				<line fill="none" stroke="#FAFAFA" stroke-width="3" stroke-miterlimit="10" x1="2063.509" y1="272.258" x2="612.901" y2="1722.865"/>
			
				<line fill="none" stroke="#FAFAFA" stroke-width="3" stroke-miterlimit="10" x1="2071.191" y1="279.94" x2="620.584" y2="1730.549"/>
			
				<line fill="none" stroke="#FAFAFA" stroke-width="3" stroke-miterlimit="10" x1="2078.874" y1="287.623" x2="628.266" y2="1738.23"/>
			
				<line fill="none" stroke="#FAFAFA" stroke-width="3" stroke-miterlimit="10" x1="2086.557" y1="295.306" x2="635.948" y2="1745.914"/>
			
				<line fill="none" stroke="#FAFAFA" stroke-width="3" stroke-miterlimit="10" x1="2094.239" y1="302.988" x2="643.631" y2="1753.596"/>
			
				<line fill="none" stroke="#FAFAFA" stroke-width="3" stroke-miterlimit="10" x1="2101.922" y1="310.671" x2="651.313" y2="1761.278"/>
			
				<line fill="none" stroke="#FAFAFA" stroke-width="3" stroke-miterlimit="10" x1="2115.191" y1="311.369" x2="664.584" y2="1761.977"/>
			
				<line fill="none" stroke="#FAFAFA" stroke-width="3" stroke-miterlimit="10" x1="2122.874" y1="319.052" x2="672.267" y2="1769.66"/>
			
				<line fill="none" stroke="#FAFAFA" stroke-width="3" stroke-miterlimit="10" x1="2130.557" y1="326.734" x2="679.949" y2="1777.342"/>
			
				<line fill="none" stroke="#FAFAFA" stroke-width="3" stroke-miterlimit="10" x1="2138.239" y1="334.417" x2="687.631" y2="1785.024"/>
			
				<line fill="none" stroke="#FAFAFA" stroke-width="3" stroke-miterlimit="10" x1="2145.922" y1="342.1" x2="695.313" y2="1792.707"/>
			
				<line fill="none" stroke="#FAFAFA" stroke-width="3" stroke-miterlimit="10" x1="2153.604" y1="349.782" x2="702.996" y2="1800.39"/>
			
				<line fill="none" stroke="#FAFAFA" stroke-width="3" stroke-miterlimit="10" x1="2161.287" y1="357.465" x2="710.679" y2="1808.072"/>
			
				<line fill="none" stroke="#FAFAFA" stroke-width="3" stroke-miterlimit="10" x1="2168.97" y1="365.146" x2="718.361" y2="1815.755"/>
			
				<line fill="none" stroke="#FAFAFA" stroke-width="3" stroke-miterlimit="10" x1="2176.652" y1="372.829" x2="726.044" y2="1823.438"/>
			
				<line fill="none" stroke="#FAFAFA" stroke-width="3" stroke-miterlimit="10" x1="2184.335" y1="380.512" x2="733.727" y2="1831.12"/>
			
				<line fill="none" stroke="#FAFAFA" stroke-width="3" stroke-miterlimit="10" x1="2192.018" y1="388.194" x2="741.409" y2="1838.803"/>
			
				<line fill="none" stroke="#FAFAFA" stroke-width="3" stroke-miterlimit="10" x1="2199.7" y1="395.877" x2="749.092" y2="1846.485"/>
			
				<line fill="none" stroke="#FAFAFA" stroke-width="3" stroke-miterlimit="10" x1="2207.383" y1="403.56" x2="756.774" y2="1854.168"/>
			
				<line fill="none" stroke="#FAFAFA" stroke-width="3" stroke-miterlimit="10" x1="2215.064" y1="411.242" x2="764.457" y2="1861.851"/>
			
				<line fill="none" stroke="#FAFAFA" stroke-width="3" stroke-miterlimit="10" x1="2222.748" y1="418.925" x2="772.14" y2="1869.533"/>
			
				<line fill="none" stroke="#FAFAFA" stroke-width="3" stroke-miterlimit="10" x1="2230.43" y1="426.607" x2="779.822" y2="1877.216"/>
			
				<line fill="none" stroke="#FAFAFA" stroke-width="3" stroke-miterlimit="10" x1="2243.7" y1="427.306" x2="793.092" y2="1877.914"/>
			
				<line fill="none" stroke="#FAFAFA" stroke-width="3" stroke-miterlimit="10" x1="2251.383" y1="434.988" x2="800.774" y2="1885.597"/>
			
				<line fill="none" stroke="#FAFAFA" stroke-width="3" stroke-miterlimit="10" x1="2259.065" y1="442.671" x2="808.457" y2="1893.279"/>
			
				<line fill="none" stroke="#FAFAFA" stroke-width="3" stroke-miterlimit="10" x1="2266.748" y1="450.354" x2="816.14" y2="1900.962"/>
			
				<line fill="none" stroke="#FAFAFA" stroke-width="3" stroke-miterlimit="10" x1="2274.43" y1="458.036" x2="823.822" y2="1908.645"/>
			
				<line fill="none" stroke="#FAFAFA" stroke-width="3" stroke-miterlimit="10" x1="2282.113" y1="465.719" x2="831.505" y2="1916.326"/>
			
				<line fill="none" stroke="#FAFAFA" stroke-width="3" stroke-miterlimit="10" x1="2289.795" y1="473.401" x2="839.188" y2="1924.01"/>
			
				<line fill="none" stroke="#FAFAFA" stroke-width="3" stroke-miterlimit="10" x1="2297.479" y1="481.084" x2="846.87" y2="1931.691"/>
			
				<line fill="none" stroke="#FAFAFA" stroke-width="3" stroke-miterlimit="10" x1="2305.16" y1="488.767" x2="854.553" y2="1939.375"/>
			
				<line fill="none" stroke="#FAFAFA" stroke-width="3" stroke-miterlimit="10" x1="2312.843" y1="496.449" x2="862.235" y2="1947.057"/>
			
				<line fill="none" stroke="#FAFAFA" stroke-width="3" stroke-miterlimit="10" x1="2320.525" y1="504.132" x2="869.918" y2="1954.739"/>
			
				<line fill="none" stroke="#FAFAFA" stroke-width="3" stroke-miterlimit="10" x1="2328.208" y1="511.814" x2="877.601" y2="1962.422"/>
			
				<line fill="none" stroke="#FAFAFA" stroke-width="3" stroke-miterlimit="10" x1="2335.891" y1="519.497" x2="885.283" y2="1970.104"/>
			
				<line fill="none" stroke="#FAFAFA" stroke-width="3" stroke-miterlimit="10" x1="2343.573" y1="527.18" x2="892.965" y2="1977.787"/>
			
				<line fill="none" stroke="#FAFAFA" stroke-width="3" stroke-miterlimit="10" x1="2351.256" y1="534.861" x2="900.648" y2="1985.47"/>
			
				<line fill="none" stroke="#FAFAFA" stroke-width="3" stroke-miterlimit="10" x1="2358.938" y1="542.544" x2="908.33" y2="1993.152"/>
			
				<line fill="none" stroke="#FAFAFA" stroke-width="3" stroke-miterlimit="10" x1="2372.209" y1="543.243" x2="921.601" y2="1993.851"/>
			
				<line fill="none" stroke="#FAFAFA" stroke-width="3" stroke-miterlimit="10" x1="2379.891" y1="550.926" x2="929.283" y2="2001.533"/>
			
				<line fill="none" stroke="#FAFAFA" stroke-width="3" stroke-miterlimit="10" x1="2387.573" y1="558.607" x2="936.966" y2="2009.216"/>
			
				<line fill="none" stroke="#FAFAFA" stroke-width="3" stroke-miterlimit="10" x1="2395.256" y1="566.29" x2="944.648" y2="2016.898"/>
			
				<line fill="none" stroke="#FAFAFA" stroke-width="3" stroke-miterlimit="10" x1="2402.938" y1="573.973" x2="952.331" y2="2024.581"/>
		</g>
	</g>
	<g>
		<defs>
			<rect id="SVGID_3_" width="1280" height="800"/>
		</defs>
		<clipPath id="SVGID_4_">
			<use xlink:href="#SVGID_3_"  overflow="visible"/>
		</clipPath>
		<path clip-path="url(#SVGID_4_)" fill="#DEF0F2" d="M1060.945,335.956c5.345,0,10.43,1.113,15.041,3.111
			c-1.195-5.147-1.827-10.509-1.827-16.02c0-38.955,31.58-70.537,70.536-70.537c36.212,0,66.047,27.292,70.068,62.425
			c6.752-3.312,14.34-5.174,22.365-5.174c28.084,0,50.853,22.769,50.853,50.854c0,28.087-22.769,50.852-50.853,50.852
			c-0.579,0-0.699-0.014-1.272-0.031L1062,411.998v-0.25c0,0-0.552,0.002-0.604,0.002c-20.936,0-38.125-16.967-38.125-37.898
			C1023.271,352.923,1040.013,335.956,1060.945,335.956z"/>
		<path clip-path="url(#SVGID_4_)" fill="#DDEFF2" d="M164.767,472.009c-3.021,0-5.896,0.629-8.504,1.759
			c0.675-2.91,1.033-5.941,1.033-9.057c0-22.023-17.854-39.879-39.879-39.879c-20.472,0-37.34,15.429-39.614,35.293
			c-3.816-1.872-8.106-2.925-12.644-2.925c-15.878,0-28.75,12.872-28.75,28.75c0,15.88,12.872,28.75,28.75,28.75
			c0.327,0,0.31-0.008,0.636-0.019L164,515l0,0c0,0,0.389,0,0.419,0c11.834,0,21.601-9.662,21.601-21.496
			C186.02,481.672,176.601,472.009,164.767,472.009z"/>
		<path clip-path="url(#SVGID_4_)" fill="#C0E2E7" d="M863.647,764.306c-2.907,0-5.707,0.461-8.338,1.3
			c0.013-0.484,0.038-0.965,0.038-1.451c0-30.379-24.63-55.007-55.01-55.007c-12.076,0-23.237,3.901-32.312,10.5
			c-9.163-33.235-39.592-57.652-75.741-57.652c-43.402,0-78.586,35.184-78.586,78.584c0,3.886,0.293,7.702,0.839,11.438
			c-6.247-4.712-14.022-7.507-22.451-7.507c-20.613,0-37.325,16.712-37.325,37.327s16.712,37.29,37.325,37.29
			c0.812,0,1.611-0.127,2.411-0.127h94.447c1.109,0,2.22,0.083,3.34,0.083c1.119,0,2.23-0.083,3.338-0.083h101.714
			c0.997,0,1.995,0.083,3.001,0.083S802.344,819,803.34,819h58.638c0.554,0,1.106,0.122,1.67,0.122
			c15.147,0,27.43-12.261,27.43-27.407C891.077,776.564,878.795,764.306,863.647,764.306z"/>
		<path clip-path="url(#SVGID_4_)" fill="#CFE8EC" d="M366.478,151.18c2.221,0,4.36,0.352,6.371,0.994
			c-0.01-0.371-0.029-0.737-0.029-1.109c0-23.209,18.816-42.024,42.026-42.024c9.227,0,17.754,2.981,24.686,8.022
			c7.001-25.392,30.248-44.046,57.866-44.046c33.159,0,60.037,26.88,60.037,60.038c0,2.968-0.224,5.884-0.64,8.738
			c4.773-3.6,10.712-5.735,17.152-5.735c15.747,0,28.516,12.768,28.516,28.518c0,15.75-12.769,28.505-28.516,28.505
			c-0.619,0-1.231-0.079-1.842-0.079h-72.157c-0.847,0-1.695,0.065-2.551,0.065S495.693,193,494.847,193h-77.708
			c-0.762,0-1.523,0.065-2.293,0.065S413.312,193,412.554,193h-44.799c-0.425,0-0.846,0.076-1.277,0.076
			c-11.572,0-20.955-9.375-20.955-20.948C345.522,160.555,354.905,151.18,366.478,151.18z"/>
		<path clip-path="url(#SVGID_4_)" fill="#DDEFF2" d="M904.767,777.009c-3.021,0-5.896,0.629-8.504,1.759
			c0.675-2.91,1.033-5.941,1.033-9.057c0-22.023-17.854-39.879-39.879-39.879c-20.472,0-37.34,15.429-39.614,35.293
			c-3.816-1.872-8.106-2.925-12.644-2.925c-15.878,0-28.75,12.872-28.75,28.75c0,15.88,12.872,28.75,28.75,28.75
			c0.327,0,0.31-0.008,0.636-0.019L904,820l0,0c0,0,0.389,0,0.419,0c11.834,0,21.601-9.662,21.601-21.496
			C926.02,786.672,916.601,777.009,904.767,777.009z"/>
		<path clip-path="url(#SVGID_4_)" fill="#DDEFF2" d="M1065.767-10.991c-3.021,0-5.896,0.629-8.504,1.759
			c0.675-2.91,1.033-5.941,1.033-9.057c0-22.023-17.854-39.879-39.879-39.879c-20.472,0-37.34,15.429-39.614,35.293
			c-3.816-1.872-8.106-2.925-12.644-2.925c-15.878,0-28.75,12.872-28.75,28.75c0,15.88,12.872,28.75,28.75,28.75
			c0.327,0,0.31-0.008,0.636-0.019L1065,32l0,0c0,0,0.389,0,0.419,0c11.834,0,21.601-9.662,21.601-21.496
			C1087.02-1.328,1077.601-10.991,1065.767-10.991z"/>
	</g>
</g>
<g id="Layer_2">
</g>
<g id="Layer_3">
</g>
</svg>
