<?xml version="1.0" encoding="utf-8"?>
<!-- Generator: Adobe Illustrator 16.0.0, SVG Export Plug-In . SVG Version: 6.00 Build 0)  -->
<!DOCTYPE svg PUBLIC "-//W3C//DTD SVG 1.1//EN" "http://www.w3.org/Graphics/SVG/1.1/DTD/svg11.dtd">
<svg version="1.1" id="Layer_1" xmlns="http://www.w3.org/2000/svg" xmlns:xlink="http://www.w3.org/1999/xlink" x="0px" y="0px"
	 width="23.44px" height="28.122px" viewBox="59.493 62.689 23.44 28.122" enable-background="new 59.493 62.689 23.44 28.122"
	 xml:space="preserve">
<g>
	<g>
		<path fill="#B7DDE3" d="M60.973,76.148c0.412,0,0.822,0.171,1.114,0.505l9.127,10.431l9.126-10.431
			c0.539-0.615,1.475-0.677,2.089-0.139s0.677,1.473,0.14,2.088l-10.24,11.703c-0.563,0.642-1.667,0.642-2.228,0l-10.24-11.703
			c-0.539-0.615-0.477-1.55,0.139-2.088C60.281,76.269,60.627,76.148,60.973,76.148z"/>
	</g>
	<g>
		<path fill="#B7DDE3" d="M71.214,62.69c0.817,0,1.479,0.662,1.479,1.479v25.162c0,0.817-0.662,1.48-1.479,1.48
			s-1.479-0.663-1.479-1.48V64.169C69.735,63.352,70.397,62.69,71.214,62.69z"/>
	</g>
</g>
</svg>
