<?xml version="1.0" encoding="utf-8"?>
<!-- Generator: Adobe Illustrator 16.0.0, SVG Export Plug-In . SVG Version: 6.00 Build 0)  -->
<!DOCTYPE svg PUBLIC "-//W3C//DTD SVG 1.1//EN" "http://www.w3.org/Graphics/SVG/1.1/DTD/svg11.dtd">
<svg version="1.1" id="Layer_1" xmlns="http://www.w3.org/2000/svg" xmlns:xlink="http://www.w3.org/1999/xlink" x="0px" y="0px"
	 width="23.44px" height="28.122px" viewBox="59.493 62.689 23.44 28.122" enable-background="new 59.493 62.689 23.44 28.122"
	 xml:space="preserve">
<g>
	<g>
		<path fill="#B7DDE3" d="M81.454,77.352c-0.412,0-0.822-0.171-1.114-0.505l-9.127-10.431l-9.126,10.431
			c-0.539,0.615-1.474,0.677-2.088,0.139c-0.615-0.538-0.677-1.473-0.139-2.088l10.24-11.703c0.562-0.642,1.667-0.642,2.227,0
			l10.24,11.703c0.539,0.615,0.477,1.55-0.139,2.088C82.147,77.232,81.8,77.352,81.454,77.352z"/>
	</g>
	<g>
		<path fill="#B7DDE3" d="M71.213,90.811c-0.817,0-1.48-0.662-1.48-1.479V64.169c0-0.817,0.663-1.48,1.48-1.48
			s1.479,0.663,1.479,1.48v25.162C72.693,90.149,72.031,90.811,71.213,90.811z"/>
	</g>
</g>
</svg>
