<?xml version="1.0" encoding="utf-8"?>
<!-- Generator: Adobe Illustrator 16.0.0, SVG Export Plug-In . SVG Version: 6.00 Build 0)  -->
<!DOCTYPE svg PUBLIC "-//W3C//DTD SVG 1.1//EN" "http://www.w3.org/Graphics/SVG/1.1/DTD/svg11.dtd">
<svg version="1.1" id="Layer_1" xmlns="http://www.w3.org/2000/svg" xmlns:xlink="http://www.w3.org/1999/xlink" x="0px" y="0px"
	 width="139.734px" height="139.824px" viewBox="94.263 65.139 139.734 139.824"
	 enable-background="new 94.263 65.139 139.734 139.824" xml:space="preserve">
<g>
	<g>
		<path fill="#B7DDE3" d="M164.073,178.448c-18.02,0-34.119-10.756-41.016-27.402c-4.536-10.953-4.536-23.016,0.001-33.968
			s13.066-19.482,24.019-24.018c5.429-2.249,11.138-3.39,16.97-3.39c18.021,0,34.121,10.758,41.017,27.406
			c4.537,10.951,4.537,23.014-0.001,33.966c-4.537,10.951-13.067,19.48-24.021,24.017
			C175.614,177.309,169.904,178.448,164.073,178.448z M164.047,99.522c-4.531,0-8.973,0.888-13.2,2.64
			c-8.521,3.528-15.157,10.165-18.687,18.686c-3.53,8.521-3.53,17.907-0.001,26.428c5.366,12.952,17.893,21.322,31.914,21.322
			c4.531,0,8.972-0.889,13.199-2.64c8.521-3.529,15.159-10.165,18.689-18.686c3.529-8.521,3.53-17.905,0-26.426
			C190.597,107.893,178.069,99.522,164.047,99.522z"/>
	</g>
	<g>
		<line fill="#FFFFFF" x1="144.054" y1="87.027" x2="137.032" y2="70.076"/>
		<path fill="#B7DDE3" d="M144.056,91.954c-1.933,0-3.767-1.145-4.553-3.042l-7.021-16.951c-1.041-2.513,0.152-5.395,2.666-6.436
			c2.512-1.039,5.394,0.152,6.436,2.666l7.021,16.951c1.041,2.513-0.152,5.395-2.666,6.436
			C145.322,91.833,144.684,91.954,144.056,91.954z"/>
	</g>
	<g>
		<line fill="#FFFFFF" x1="112.987" y1="114.311" x2="99.188" y2="108.593"/>
		<path fill="#B7DDE3" d="M112.985,119.237c-0.628,0-1.267-0.121-1.884-0.376l-13.799-5.718c-2.513-1.042-3.706-3.923-2.665-6.437
			c1.041-2.513,3.92-3.704,6.437-2.665l13.799,5.718c2.513,1.042,3.706,3.923,2.665,6.437
			C116.752,118.093,114.918,119.237,112.985,119.237z"/>
	</g>
	<g>
		<line fill="#FFFFFF" x1="116.058" y1="156.881" x2="100.235" y2="163.434"/>
		<path fill="#B7DDE3" d="M100.237,168.36c-1.934,0-3.768-1.145-4.553-3.042c-1.041-2.514,0.152-5.395,2.666-6.436l15.822-6.553
			c2.515-1.039,5.396,0.152,6.436,2.666c1.041,2.514-0.152,5.395-2.666,6.436l-15.822,6.553
			C101.504,168.239,100.865,168.36,100.237,168.36z"/>
	</g>
	<g>
		<line fill="#FFFFFF" x1="143.431" y1="186.149" x2="137.714" y2="199.949"/>
		<path fill="#B7DDE3" d="M137.712,204.876c-0.628,0-1.267-0.121-1.883-0.376c-2.514-1.041-3.707-3.923-2.666-6.436l5.717-13.8
			c1.041-2.514,3.924-3.705,6.436-2.666c2.514,1.041,3.707,3.923,2.666,6.436l-5.717,13.8
			C141.479,203.731,139.645,204.876,137.712,204.876z"/>
	</g>
	<g>
		<line fill="#FFFFFF" x1="183.843" y1="183.086" x2="190.864" y2="200.037"/>
		<path fill="#B7DDE3" d="M190.866,204.964c-1.933,0-3.767-1.145-4.553-3.042l-7.021-16.951c-1.041-2.513,0.152-5.395,2.666-6.436
			c2.512-1.041,5.394,0.151,6.436,2.666l7.021,16.951c1.041,2.513-0.152,5.395-2.666,6.436
			C192.133,204.843,191.494,204.964,190.866,204.964z"/>
	</g>
	<g>
		<line fill="#FFFFFF" x1="215.269" y1="155.704" x2="229.071" y2="161.423"/>
		<path fill="#B7DDE3" d="M229.069,166.35c-0.628,0-1.267-0.121-1.884-0.376l-13.803-5.719c-2.513-1.041-3.706-3.923-2.665-6.437
			c1.042-2.513,3.92-3.704,6.437-2.665l13.803,5.719c2.513,1.041,3.706,3.923,2.665,6.437
			C232.836,165.205,231.002,166.35,229.069,166.35z"/>
	</g>
	<g>
		<line fill="#FFFFFF" x1="212.308" y1="114.363" x2="228.13" y2="107.811"/>
		<path fill="#B7DDE3" d="M212.31,119.29c-1.934,0-3.768-1.145-4.553-3.042c-1.041-2.514,0.152-5.395,2.666-6.436l15.822-6.553
			c2.514-1.038,5.396,0.152,6.436,2.666c1.041,2.514-0.152,5.395-2.666,6.436l-15.822,6.553
			C213.576,119.169,212.938,119.29,212.31,119.29z"/>
	</g>
	<g>
		<line fill="#FFFFFF" x1="184.827" y1="83.865" x2="190.542" y2="70.064"/>
		<path fill="#B7DDE3" d="M184.825,88.792c-0.628,0-1.267-0.12-1.883-0.376c-2.513-1.041-3.707-3.922-2.666-6.436l5.715-13.801
			c1.041-2.512,3.924-3.709,6.436-2.666c2.513,1.041,3.707,3.922,2.666,6.436l-5.715,13.801
			C188.593,87.646,186.758,88.792,184.825,88.792z"/>
	</g>
</g>
</svg>
