<?xml version="1.0" encoding="utf-8"?>
<!-- Generator: Adobe Illustrator 16.0.0, SVG Export Plug-In . SVG Version: 6.00 Build 0)  -->
<!DOCTYPE svg PUBLIC "-//W3C//DTD SVG 1.1//EN" "http://www.w3.org/Graphics/SVG/1.1/DTD/svg11.dtd">
<svg version="1.1" id="Layer_1" xmlns="http://www.w3.org/2000/svg" xmlns:xlink="http://www.w3.org/1999/xlink" x="0px" y="0px"
	 width="20.205px" height="29.282px" viewBox="62.246 63.222 20.205 29.282" enable-background="new 62.246 63.222 20.205 29.282"
	 xml:space="preserve">
<g>
	<path fill="#B7DDE3" d="M72.349,92.504c-5.571,0-10.103-4.533-10.103-10.106c0-5.126,8.541-17.262,9.515-18.629
		c0.25-0.352,0.66-0.569,1.092-0.546c0.433,0.011,0.831,0.235,1.064,0.6c0.873,1.365,8.533,13.483,8.533,18.575
		C82.451,87.971,77.919,92.504,72.349,92.504z M72.763,66.893c-2.933,4.32-7.913,12.322-7.913,15.505
		c0,4.137,3.364,7.503,7.499,7.503s7.499-3.366,7.499-7.503C79.848,79.2,75.404,71.231,72.763,66.893z"/>
</g>
</svg>
