<?xml version="1.0" encoding="utf-8"?>
<!-- Generator: Adobe Illustrator 16.0.0, SVG Export Plug-In . SVG Version: 6.00 Build 0)  -->
<!DOCTYPE svg PUBLIC "-//W3C//DTD SVG 1.1//EN" "http://www.w3.org/Graphics/SVG/1.1/DTD/svg11.dtd">
<svg version="1.1" id="Layer_1" xmlns="http://www.w3.org/2000/svg" xmlns:xlink="http://www.w3.org/1999/xlink" x="0px" y="0px"
	 width="1280px" height="244px" viewBox="-840 -376.5 1280 244" enable-background="new -840 -376.5 1280 244" xml:space="preserve"
	>
<g>
	<defs>
		<rect id="SVGID_1_" x="-840" y="-376.5" width="1280" height="244"/>
	</defs>
	<clipPath id="SVGID_2_">
		<use xlink:href="#SVGID_1_"  overflow="visible"/>
	</clipPath>
	<g clip-path="url(#SVGID_2_)">
		<line fill="none" stroke="#FAFAFA" stroke-width="3" stroke-miterlimit="10" x1="-9.892" y1="-1225" x2="-1460.5" y2="225.608"/>
		
			<line fill="none" stroke="#FAFAFA" stroke-width="3" stroke-miterlimit="10" x1="-2.209" y1="-1217.317" x2="-1452.817" y2="233.291"/>
		
			<line fill="none" stroke="#FAFAFA" stroke-width="3" stroke-miterlimit="10" x1="5.473" y1="-1209.635" x2="-1445.135" y2="240.973"/>
		
			<line fill="none" stroke="#FAFAFA" stroke-width="3" stroke-miterlimit="10" x1="13.156" y1="-1201.952" x2="-1437.452" y2="248.656"/>
		
			<line fill="none" stroke="#FAFAFA" stroke-width="3" stroke-miterlimit="10" x1="20.838" y1="-1194.27" x2="-1429.77" y2="256.338"/>
		
			<line fill="none" stroke="#FAFAFA" stroke-width="3" stroke-miterlimit="10" x1="28.521" y1="-1186.587" x2="-1422.087" y2="264.021"/>
		
			<line fill="none" stroke="#FAFAFA" stroke-width="3" stroke-miterlimit="10" x1="36.203" y1="-1178.905" x2="-1414.404" y2="271.703"/>
		
			<line fill="none" stroke="#FAFAFA" stroke-width="3" stroke-miterlimit="10" x1="43.886" y1="-1171.222" x2="-1406.723" y2="279.386"/>
		
			<line fill="none" stroke="#FAFAFA" stroke-width="3" stroke-miterlimit="10" x1="51.568" y1="-1163.54" x2="-1399.039" y2="287.068"/>
		
			<line fill="none" stroke="#FAFAFA" stroke-width="3" stroke-miterlimit="10" x1="59.251" y1="-1155.857" x2="-1391.357" y2="294.751"/>
		
			<line fill="none" stroke="#FAFAFA" stroke-width="3" stroke-miterlimit="10" x1="66.934" y1="-1148.174" x2="-1383.674" y2="302.434"/>
		
			<line fill="none" stroke="#FAFAFA" stroke-width="3" stroke-miterlimit="10" x1="74.616" y1="-1140.492" x2="-1375.992" y2="310.116"/>
		
			<line fill="none" stroke="#FAFAFA" stroke-width="3" stroke-miterlimit="10" x1="82.299" y1="-1132.809" x2="-1368.309" y2="317.799"/>
		
			<line fill="none" stroke="#FAFAFA" stroke-width="3" stroke-miterlimit="10" x1="89.981" y1="-1125.126" x2="-1360.627" y2="325.481"/>
		
			<line fill="none" stroke="#FAFAFA" stroke-width="3" stroke-miterlimit="10" x1="97.664" y1="-1117.444" x2="-1352.944" y2="333.164"/>
		
			<line fill="none" stroke="#FAFAFA" stroke-width="3" stroke-miterlimit="10" x1="105.347" y1="-1109.762" x2="-1345.262" y2="340.847"/>
		
			<line fill="none" stroke="#FAFAFA" stroke-width="3" stroke-miterlimit="10" x1="118.616" y1="-1109.063" x2="-1331.992" y2="341.545"/>
		
			<line fill="none" stroke="#FAFAFA" stroke-width="3" stroke-miterlimit="10" x1="126.299" y1="-1101.38" x2="-1324.309" y2="349.228"/>
		
			<line fill="none" stroke="#FAFAFA" stroke-width="3" stroke-miterlimit="10" x1="133.981" y1="-1093.698" x2="-1316.627" y2="356.91"/>
		
			<line fill="none" stroke="#FAFAFA" stroke-width="3" stroke-miterlimit="10" x1="141.664" y1="-1086.016" x2="-1308.943" y2="364.593"/>
		
			<line fill="none" stroke="#FAFAFA" stroke-width="3" stroke-miterlimit="10" x1="149.347" y1="-1078.333" x2="-1301.262" y2="372.275"/>
		
			<line fill="none" stroke="#FAFAFA" stroke-width="3" stroke-miterlimit="10" x1="157.029" y1="-1070.65" x2="-1293.578" y2="379.958"/>
		
			<line fill="none" stroke="#FAFAFA" stroke-width="3" stroke-miterlimit="10" x1="164.712" y1="-1062.968" x2="-1285.896" y2="387.641"/>
		
			<line fill="none" stroke="#FAFAFA" stroke-width="3" stroke-miterlimit="10" x1="172.395" y1="-1055.285" x2="-1278.214" y2="395.323"/>
		
			<line fill="none" stroke="#FAFAFA" stroke-width="3" stroke-miterlimit="10" x1="180.077" y1="-1047.603" x2="-1270.531" y2="403.006"/>
		
			<line fill="none" stroke="#FAFAFA" stroke-width="3" stroke-miterlimit="10" x1="187.76" y1="-1039.92" x2="-1262.849" y2="410.688"/>
		
			<line fill="none" stroke="#FAFAFA" stroke-width="3" stroke-miterlimit="10" x1="195.442" y1="-1032.237" x2="-1255.166" y2="418.371"/>
		
			<line fill="none" stroke="#FAFAFA" stroke-width="3" stroke-miterlimit="10" x1="203.125" y1="-1024.555" x2="-1247.483" y2="426.053"/>
		
			<line fill="none" stroke="#FAFAFA" stroke-width="3" stroke-miterlimit="10" x1="210.807" y1="-1016.872" x2="-1239.801" y2="433.735"/>
		
			<line fill="none" stroke="#FAFAFA" stroke-width="3" stroke-miterlimit="10" x1="218.49" y1="-1009.19" x2="-1232.118" y2="441.418"/>
		
			<line fill="none" stroke="#FAFAFA" stroke-width="3" stroke-miterlimit="10" x1="226.172" y1="-1001.507" x2="-1224.436" y2="449.101"/>
		
			<line fill="none" stroke="#FAFAFA" stroke-width="3" stroke-miterlimit="10" x1="233.855" y1="-993.825" x2="-1216.753" y2="456.783"/>
		
			<line fill="none" stroke="#FAFAFA" stroke-width="3" stroke-miterlimit="10" x1="247.125" y1="-993.126" x2="-1203.483" y2="457.481"/>
		
			<line fill="none" stroke="#FAFAFA" stroke-width="3" stroke-miterlimit="10" x1="254.808" y1="-985.444" x2="-1195.801" y2="465.164"/>
		
			<line fill="none" stroke="#FAFAFA" stroke-width="3" stroke-miterlimit="10" x1="262.49" y1="-977.761" x2="-1188.118" y2="472.847"/>
		
			<line fill="none" stroke="#FAFAFA" stroke-width="3" stroke-miterlimit="10" x1="270.172" y1="-970.079" x2="-1180.436" y2="480.529"/>
		
			<line fill="none" stroke="#FAFAFA" stroke-width="3" stroke-miterlimit="10" x1="277.855" y1="-962.396" x2="-1172.753" y2="488.212"/>
		
			<line fill="none" stroke="#FAFAFA" stroke-width="3" stroke-miterlimit="10" x1="285.537" y1="-954.713" x2="-1165.07" y2="495.895"/>
		
			<line fill="none" stroke="#FAFAFA" stroke-width="3" stroke-miterlimit="10" x1="293.221" y1="-947.031" x2="-1157.388" y2="503.577"/>
		
			<line fill="none" stroke="#FAFAFA" stroke-width="3" stroke-miterlimit="10" x1="300.902" y1="-939.348" x2="-1149.705" y2="511.26"/>
		
			<line fill="none" stroke="#FAFAFA" stroke-width="3" stroke-miterlimit="10" x1="308.585" y1="-931.666" x2="-1142.023" y2="518.942"/>
		
			<line fill="none" stroke="#FAFAFA" stroke-width="3" stroke-miterlimit="10" x1="316.268" y1="-923.983" x2="-1134.34" y2="526.625"/>
		
			<line fill="none" stroke="#FAFAFA" stroke-width="3" stroke-miterlimit="10" x1="323.95" y1="-916.301" x2="-1126.658" y2="534.308"/>
		
			<line fill="none" stroke="#FAFAFA" stroke-width="3" stroke-miterlimit="10" x1="331.633" y1="-908.618" x2="-1118.975" y2="541.99"/>
		
			<line fill="none" stroke="#FAFAFA" stroke-width="3" stroke-miterlimit="10" x1="339.315" y1="-900.936" x2="-1111.293" y2="549.673"/>
		
			<line fill="none" stroke="#FAFAFA" stroke-width="3" stroke-miterlimit="10" x1="346.998" y1="-893.253" x2="-1103.609" y2="557.355"/>
		
			<line fill="none" stroke="#FAFAFA" stroke-width="3" stroke-miterlimit="10" x1="354.681" y1="-885.57" x2="-1095.928" y2="565.038"/>
		
			<line fill="none" stroke="#FAFAFA" stroke-width="3" stroke-miterlimit="10" x1="362.363" y1="-877.888" x2="-1088.244" y2="572.721"/>
		
			<line fill="none" stroke="#FAFAFA" stroke-width="3" stroke-miterlimit="10" x1="375.633" y1="-877.189" x2="-1074.975" y2="573.419"/>
		
			<line fill="none" stroke="#FAFAFA" stroke-width="3" stroke-miterlimit="10" x1="383.315" y1="-869.507" x2="-1067.293" y2="581.102"/>
		
			<line fill="none" stroke="#FAFAFA" stroke-width="3" stroke-miterlimit="10" x1="390.998" y1="-861.824" x2="-1059.609" y2="588.784"/>
		
			<line fill="none" stroke="#FAFAFA" stroke-width="3" stroke-miterlimit="10" x1="398.681" y1="-854.142" x2="-1051.928" y2="596.467"/>
		
			<line fill="none" stroke="#FAFAFA" stroke-width="3" stroke-miterlimit="10" x1="406.363" y1="-846.459" x2="-1044.244" y2="604.148"/>
		
			<line fill="none" stroke="#FAFAFA" stroke-width="3" stroke-miterlimit="10" x1="414.046" y1="-838.776" x2="-1036.562" y2="611.832"/>
		
			<line fill="none" stroke="#FAFAFA" stroke-width="3" stroke-miterlimit="10" x1="421.729" y1="-831.094" x2="-1028.879" y2="619.514"/>
		
			<line fill="none" stroke="#FAFAFA" stroke-width="3" stroke-miterlimit="10" x1="429.411" y1="-823.411" x2="-1021.197" y2="627.197"/>
		
			<line fill="none" stroke="#FAFAFA" stroke-width="3" stroke-miterlimit="10" x1="437.094" y1="-815.729" x2="-1013.514" y2="634.879"/>
		
			<line fill="none" stroke="#FAFAFA" stroke-width="3" stroke-miterlimit="10" x1="444.776" y1="-808.046" x2="-1005.832" y2="642.562"/>
		
			<line fill="none" stroke="#FAFAFA" stroke-width="3" stroke-miterlimit="10" x1="452.459" y1="-800.364" x2="-998.149" y2="650.244"/>
		
			<line fill="none" stroke="#FAFAFA" stroke-width="3" stroke-miterlimit="10" x1="460.142" y1="-792.681" x2="-990.467" y2="657.927"/>
		
			<line fill="none" stroke="#FAFAFA" stroke-width="3" stroke-miterlimit="10" x1="467.824" y1="-784.999" x2="-982.784" y2="665.609"/>
		
			<line fill="none" stroke="#FAFAFA" stroke-width="3" stroke-miterlimit="10" x1="475.507" y1="-777.316" x2="-975.102" y2="673.292"/>
		
			<line fill="none" stroke="#FAFAFA" stroke-width="3" stroke-miterlimit="10" x1="483.189" y1="-769.633" x2="-967.419" y2="680.975"/>
		
			<line fill="none" stroke="#FAFAFA" stroke-width="3" stroke-miterlimit="10" x1="490.871" y1="-761.951" x2="-959.736" y2="688.657"/>
		
			<line fill="none" stroke="#FAFAFA" stroke-width="3" stroke-miterlimit="10" x1="504.142" y1="-761.252" x2="-946.467" y2="689.355"/>
		
			<line fill="none" stroke="#FAFAFA" stroke-width="3" stroke-miterlimit="10" x1="511.824" y1="-753.57" x2="-938.784" y2="697.038"/>
		
			<line fill="none" stroke="#FAFAFA" stroke-width="3" stroke-miterlimit="10" x1="519.507" y1="-745.887" x2="-931.102" y2="704.721"/>
		
			<line fill="none" stroke="#FAFAFA" stroke-width="3" stroke-miterlimit="10" x1="527.189" y1="-738.205" x2="-923.419" y2="712.403"/>
		
			<line fill="none" stroke="#FAFAFA" stroke-width="3" stroke-miterlimit="10" x1="534.872" y1="-730.522" x2="-915.736" y2="720.086"/>
		
			<line fill="none" stroke="#FAFAFA" stroke-width="3" stroke-miterlimit="10" x1="542.555" y1="-722.84" x2="-908.054" y2="727.769"/>
		
			<line fill="none" stroke="#FAFAFA" stroke-width="3" stroke-miterlimit="10" x1="550.236" y1="-715.157" x2="-900.371" y2="735.451"/>
		
			<line fill="none" stroke="#FAFAFA" stroke-width="3" stroke-miterlimit="10" x1="557.92" y1="-707.475" x2="-892.688" y2="743.134"/>
		
			<line fill="none" stroke="#FAFAFA" stroke-width="3" stroke-miterlimit="10" x1="565.602" y1="-699.792" x2="-885.006" y2="750.816"/>
		
			<line fill="none" stroke="#FAFAFA" stroke-width="3" stroke-miterlimit="10" x1="573.285" y1="-692.109" x2="-877.323" y2="758.499"/>
		
			<line fill="none" stroke="#FAFAFA" stroke-width="3" stroke-miterlimit="10" x1="580.967" y1="-684.427" x2="-869.641" y2="766.182"/>
		
			<line fill="none" stroke="#FAFAFA" stroke-width="3" stroke-miterlimit="10" x1="588.649" y1="-676.744" x2="-861.959" y2="773.863"/>
		
			<line fill="none" stroke="#FAFAFA" stroke-width="3" stroke-miterlimit="10" x1="596.332" y1="-669.062" x2="-854.275" y2="781.547"/>
		
			<line fill="none" stroke="#FAFAFA" stroke-width="3" stroke-miterlimit="10" x1="604.014" y1="-661.379" x2="-846.594" y2="789.229"/>
		
			<line fill="none" stroke="#FAFAFA" stroke-width="3" stroke-miterlimit="10" x1="611.697" y1="-653.696" x2="-838.91" y2="796.912"/>
		
			<line fill="none" stroke="#FAFAFA" stroke-width="3" stroke-miterlimit="10" x1="619.38" y1="-646.014" x2="-831.229" y2="804.594"/>
		
			<line fill="none" stroke="#FAFAFA" stroke-width="3" stroke-miterlimit="10" x1="632.65" y1="-645.315" x2="-817.958" y2="805.293"/>
		
			<line fill="none" stroke="#FAFAFA" stroke-width="3" stroke-miterlimit="10" x1="640.332" y1="-637.633" x2="-810.275" y2="812.975"/>
		
			<line fill="none" stroke="#FAFAFA" stroke-width="3" stroke-miterlimit="10" x1="648.014" y1="-629.95" x2="-802.594" y2="820.658"/>
		
			<line fill="none" stroke="#FAFAFA" stroke-width="3" stroke-miterlimit="10" x1="655.697" y1="-622.268" x2="-794.91" y2="828.34"/>
		
			<line fill="none" stroke="#FAFAFA" stroke-width="3" stroke-miterlimit="10" x1="663.38" y1="-614.585" x2="-787.229" y2="836.022"/>
		
			<line fill="none" stroke="#FAFAFA" stroke-width="3" stroke-miterlimit="10" x1="671.062" y1="-606.903" x2="-779.545" y2="843.705"/>
		
			<line fill="none" stroke="#FAFAFA" stroke-width="3" stroke-miterlimit="10" x1="678.745" y1="-599.22" x2="-771.863" y2="851.388"/>
		
			<line fill="none" stroke="#FAFAFA" stroke-width="3" stroke-miterlimit="10" x1="686.428" y1="-591.538" x2="-764.18" y2="859.07"/>
		
			<line fill="none" stroke="#FAFAFA" stroke-width="3" stroke-miterlimit="10" x1="694.11" y1="-583.855" x2="-756.498" y2="866.753"/>
		
			<line fill="none" stroke="#FAFAFA" stroke-width="3" stroke-miterlimit="10" x1="701.793" y1="-576.172" x2="-748.814" y2="874.436"/>
		
			<line fill="none" stroke="#FAFAFA" stroke-width="3" stroke-miterlimit="10" x1="709.476" y1="-568.49" x2="-741.133" y2="882.118"/>
		
			<line fill="none" stroke="#FAFAFA" stroke-width="3" stroke-miterlimit="10" x1="717.158" y1="-560.807" x2="-733.45" y2="889.801"/>
		
			<line fill="none" stroke="#FAFAFA" stroke-width="3" stroke-miterlimit="10" x1="724.841" y1="-553.125" x2="-725.768" y2="897.483"/>
		
			<line fill="none" stroke="#FAFAFA" stroke-width="3" stroke-miterlimit="10" x1="732.523" y1="-545.442" x2="-718.085" y2="905.166"/>
		
			<line fill="none" stroke="#FAFAFA" stroke-width="3" stroke-miterlimit="10" x1="740.206" y1="-537.76" x2="-710.402" y2="912.849"/>
		
			<line fill="none" stroke="#FAFAFA" stroke-width="3" stroke-miterlimit="10" x1="747.889" y1="-530.077" x2="-702.72" y2="920.531"/>
		
			<line fill="none" stroke="#FAFAFA" stroke-width="3" stroke-miterlimit="10" x1="761.158" y1="-529.378" x2="-689.449" y2="921.229"/>
		
			<line fill="none" stroke="#FAFAFA" stroke-width="3" stroke-miterlimit="10" x1="768.841" y1="-521.696" x2="-681.768" y2="928.912"/>
		
			<line fill="none" stroke="#FAFAFA" stroke-width="3" stroke-miterlimit="10" x1="776.523" y1="-514.014" x2="-674.084" y2="936.595"/>
		
			<line fill="none" stroke="#FAFAFA" stroke-width="3" stroke-miterlimit="10" x1="784.206" y1="-506.331" x2="-666.402" y2="944.277"/>
		
			<line fill="none" stroke="#FAFAFA" stroke-width="3" stroke-miterlimit="10" x1="791.889" y1="-498.648" x2="-658.72" y2="951.96"/>
		
			<line fill="none" stroke="#FAFAFA" stroke-width="3" stroke-miterlimit="10" x1="799.571" y1="-490.966" x2="-651.037" y2="959.643"/>
		
			<line fill="none" stroke="#FAFAFA" stroke-width="3" stroke-miterlimit="10" x1="807.254" y1="-483.283" x2="-643.354" y2="967.324"/>
		
			<line fill="none" stroke="#FAFAFA" stroke-width="3" stroke-miterlimit="10" x1="814.937" y1="-475.601" x2="-635.672" y2="975.008"/>
		
			<line fill="none" stroke="#FAFAFA" stroke-width="3" stroke-miterlimit="10" x1="822.619" y1="-467.918" x2="-627.989" y2="982.689"/>
		
			<line fill="none" stroke="#FAFAFA" stroke-width="3" stroke-miterlimit="10" x1="830.301" y1="-460.235" x2="-620.307" y2="990.373"/>
		
			<line fill="none" stroke="#FAFAFA" stroke-width="3" stroke-miterlimit="10" x1="837.984" y1="-452.553" x2="-612.624" y2="998.055"/>
		
			<line fill="none" stroke="#FAFAFA" stroke-width="3" stroke-miterlimit="10" x1="845.666" y1="-444.871" x2="-604.941" y2="1005.737"/>
		
			<line fill="none" stroke="#FAFAFA" stroke-width="3" stroke-miterlimit="10" x1="853.35" y1="-437.188" x2="-597.259" y2="1013.42"/>
		
			<line fill="none" stroke="#FAFAFA" stroke-width="3" stroke-miterlimit="10" x1="861.031" y1="-429.505" x2="-589.576" y2="1021.103"/>
		
			<line fill="none" stroke="#FAFAFA" stroke-width="3" stroke-miterlimit="10" x1="868.714" y1="-421.823" x2="-581.895" y2="1028.785"/>
		
			<line fill="none" stroke="#FAFAFA" stroke-width="3" stroke-miterlimit="10" x1="876.396" y1="-414.14" x2="-574.211" y2="1036.468"/>
		
			<line fill="none" stroke="#FAFAFA" stroke-width="3" stroke-miterlimit="10" x1="889.666" y1="-413.442" x2="-560.941" y2="1037.166"/>
		
			<line fill="none" stroke="#FAFAFA" stroke-width="3" stroke-miterlimit="10" x1="897.35" y1="-405.759" x2="-553.259" y2="1044.849"/>
		
			<line fill="none" stroke="#FAFAFA" stroke-width="3" stroke-miterlimit="10" x1="905.031" y1="-398.077" x2="-545.576" y2="1052.531"/>
		
			<line fill="none" stroke="#FAFAFA" stroke-width="3" stroke-miterlimit="10" x1="912.715" y1="-390.394" x2="-537.894" y2="1060.214"/>
		
			<line fill="none" stroke="#FAFAFA" stroke-width="3" stroke-miterlimit="10" x1="920.396" y1="-382.711" x2="-530.211" y2="1067.896"/>
		
			<line fill="none" stroke="#FAFAFA" stroke-width="3" stroke-miterlimit="10" x1="928.079" y1="-375.029" x2="-522.528" y2="1075.579"/>
		
			<line fill="none" stroke="#FAFAFA" stroke-width="3" stroke-miterlimit="10" x1="935.762" y1="-367.346" x2="-514.846" y2="1083.262"/>
		
			<line fill="none" stroke="#FAFAFA" stroke-width="3" stroke-miterlimit="10" x1="943.444" y1="-359.664" x2="-507.164" y2="1090.944"/>
		
			<line fill="none" stroke="#FAFAFA" stroke-width="3" stroke-miterlimit="10" x1="951.127" y1="-351.981" x2="-499.48" y2="1098.627"/>
		
			<line fill="none" stroke="#FAFAFA" stroke-width="3" stroke-miterlimit="10" x1="958.81" y1="-344.299" x2="-491.799" y2="1106.31"/>
		
			<line fill="none" stroke="#FAFAFA" stroke-width="3" stroke-miterlimit="10" x1="966.492" y1="-336.616" x2="-484.115" y2="1113.992"/>
		
			<line fill="none" stroke="#FAFAFA" stroke-width="3" stroke-miterlimit="10" x1="974.175" y1="-328.934" x2="-476.434" y2="1121.675"/>
		
			<line fill="none" stroke="#FAFAFA" stroke-width="3" stroke-miterlimit="10" x1="981.857" y1="-321.251" x2="-468.75" y2="1129.357"/>
		
			<line fill="none" stroke="#FAFAFA" stroke-width="3" stroke-miterlimit="10" x1="989.54" y1="-313.568" x2="-461.068" y2="1137.039"/>
		
			<line fill="none" stroke="#FAFAFA" stroke-width="3" stroke-miterlimit="10" x1="997.223" y1="-305.886" x2="-453.386" y2="1144.723"/>
		
			<line fill="none" stroke="#FAFAFA" stroke-width="3" stroke-miterlimit="10" x1="1004.905" y1="-298.203" x2="-445.703" y2="1152.404"/>
		
			<line fill="none" stroke="#FAFAFA" stroke-width="3" stroke-miterlimit="10" x1="1018.175" y1="-297.505" x2="-432.434" y2="1153.104"/>
		
			<line fill="none" stroke="#FAFAFA" stroke-width="3" stroke-miterlimit="10" x1="1025.857" y1="-289.822" x2="-424.75" y2="1160.786"/>
		
			<line fill="none" stroke="#FAFAFA" stroke-width="3" stroke-miterlimit="10" x1="1033.54" y1="-282.14" x2="-417.068" y2="1168.469"/>
		
			<line fill="none" stroke="#FAFAFA" stroke-width="3" stroke-miterlimit="10" x1="1041.223" y1="-274.457" x2="-409.385" y2="1176.15"/>
		
			<line fill="none" stroke="#FAFAFA" stroke-width="3" stroke-miterlimit="10" x1="1048.905" y1="-266.774" x2="-401.703" y2="1183.834"/>
		
			<line fill="none" stroke="#FAFAFA" stroke-width="3" stroke-miterlimit="10" x1="1056.588" y1="-259.092" x2="-394.021" y2="1191.516"/>
		
			<line fill="none" stroke="#FAFAFA" stroke-width="3" stroke-miterlimit="10" x1="1064.271" y1="-251.409" x2="-386.338" y2="1199.198"/>
		
			<line fill="none" stroke="#FAFAFA" stroke-width="3" stroke-miterlimit="10" x1="1071.953" y1="-243.727" x2="-378.655" y2="1206.881"/>
		
			<line fill="none" stroke="#FAFAFA" stroke-width="3" stroke-miterlimit="10" x1="1079.635" y1="-236.044" x2="-370.973" y2="1214.563"/>
		
			<line fill="none" stroke="#FAFAFA" stroke-width="3" stroke-miterlimit="10" x1="1087.318" y1="-228.362" x2="-363.29" y2="1222.246"/>
		
			<line fill="none" stroke="#FAFAFA" stroke-width="3" stroke-miterlimit="10" x1="1095.001" y1="-220.679" x2="-355.607" y2="1229.929"/>
		
			<line fill="none" stroke="#FAFAFA" stroke-width="3" stroke-miterlimit="10" x1="1102.684" y1="-212.997" x2="-347.925" y2="1237.611"/>
		
			<line fill="none" stroke="#FAFAFA" stroke-width="3" stroke-miterlimit="10" x1="1110.365" y1="-205.314" x2="-340.242" y2="1245.294"/>
		
			<line fill="none" stroke="#FAFAFA" stroke-width="3" stroke-miterlimit="10" x1="1118.049" y1="-197.632" x2="-332.56" y2="1252.977"/>
		
			<line fill="none" stroke="#FAFAFA" stroke-width="3" stroke-miterlimit="10" x1="1125.73" y1="-189.949" x2="-324.877" y2="1260.659"/>
		
			<line fill="none" stroke="#FAFAFA" stroke-width="3" stroke-miterlimit="10" x1="1133.414" y1="-182.267" x2="-317.194" y2="1268.342"/>
		
			<line fill="none" stroke="#FAFAFA" stroke-width="3" stroke-miterlimit="10" x1="1146.684" y1="-181.568" x2="-303.925" y2="1269.04"/>
		
			<line fill="none" stroke="#FAFAFA" stroke-width="3" stroke-miterlimit="10" x1="1154.366" y1="-173.886" x2="-296.242" y2="1276.723"/>
		
			<line fill="none" stroke="#FAFAFA" stroke-width="3" stroke-miterlimit="10" x1="1162.049" y1="-166.203" x2="-288.56" y2="1284.405"/>
		
			<line fill="none" stroke="#FAFAFA" stroke-width="3" stroke-miterlimit="10" x1="1169.73" y1="-158.521" x2="-280.877" y2="1292.088"/>
		
			<line fill="none" stroke="#FAFAFA" stroke-width="3" stroke-miterlimit="10" x1="1177.414" y1="-150.838" x2="-273.194" y2="1299.771"/>
		
			<line fill="none" stroke="#FAFAFA" stroke-width="3" stroke-miterlimit="10" x1="1185.096" y1="-143.155" x2="-265.512" y2="1307.453"/>
		
			<line fill="none" stroke="#FAFAFA" stroke-width="3" stroke-miterlimit="10" x1="1192.778" y1="-135.473" x2="-257.829" y2="1315.136"/>
		
			<line fill="none" stroke="#FAFAFA" stroke-width="3" stroke-miterlimit="10" x1="1200.461" y1="-127.79" x2="-250.146" y2="1322.818"/>
		
			<line fill="none" stroke="#FAFAFA" stroke-width="3" stroke-miterlimit="10" x1="1208.144" y1="-120.107" x2="-242.464" y2="1330.501"/>
		
			<line fill="none" stroke="#FAFAFA" stroke-width="3" stroke-miterlimit="10" x1="1215.826" y1="-112.425" x2="-234.781" y2="1338.184"/>
		
			<line fill="none" stroke="#FAFAFA" stroke-width="3" stroke-miterlimit="10" x1="1223.509" y1="-104.742" x2="-227.099" y2="1345.865"/>
		
			<line fill="none" stroke="#FAFAFA" stroke-width="3" stroke-miterlimit="10" x1="1231.191" y1="-97.06" x2="-219.416" y2="1353.549"/>
		
			<line fill="none" stroke="#FAFAFA" stroke-width="3" stroke-miterlimit="10" x1="1238.874" y1="-89.377" x2="-211.734" y2="1361.23"/>
		
			<line fill="none" stroke="#FAFAFA" stroke-width="3" stroke-miterlimit="10" x1="1246.557" y1="-81.694" x2="-204.052" y2="1368.914"/>
		
			<line fill="none" stroke="#FAFAFA" stroke-width="3" stroke-miterlimit="10" x1="1254.239" y1="-74.012" x2="-196.369" y2="1376.596"/>
		
			<line fill="none" stroke="#FAFAFA" stroke-width="3" stroke-miterlimit="10" x1="1261.922" y1="-66.329" x2="-188.687" y2="1384.278"/>
		
			<line fill="none" stroke="#FAFAFA" stroke-width="3" stroke-miterlimit="10" x1="1275.191" y1="-65.631" x2="-175.416" y2="1384.977"/>
		
			<line fill="none" stroke="#FAFAFA" stroke-width="3" stroke-miterlimit="10" x1="1282.874" y1="-57.948" x2="-167.733" y2="1392.66"/>
		
			<line fill="none" stroke="#FAFAFA" stroke-width="3" stroke-miterlimit="10" x1="1290.557" y1="-50.266" x2="-160.051" y2="1400.342"/>
		
			<line fill="none" stroke="#FAFAFA" stroke-width="3" stroke-miterlimit="10" x1="1298.239" y1="-42.583" x2="-152.369" y2="1408.024"/>
		
			<line fill="none" stroke="#FAFAFA" stroke-width="3" stroke-miterlimit="10" x1="1305.922" y1="-34.9" x2="-144.687" y2="1415.707"/>
		
			<line fill="none" stroke="#FAFAFA" stroke-width="3" stroke-miterlimit="10" x1="1313.604" y1="-27.218" x2="-137.004" y2="1423.39"/>
		
			<line fill="none" stroke="#FAFAFA" stroke-width="3" stroke-miterlimit="10" x1="1321.287" y1="-19.535" x2="-129.321" y2="1431.072"/>
		
			<line fill="none" stroke="#FAFAFA" stroke-width="3" stroke-miterlimit="10" x1="1328.969" y1="-11.854" x2="-121.639" y2="1438.755"/>
		
			<line fill="none" stroke="#FAFAFA" stroke-width="3" stroke-miterlimit="10" x1="1336.652" y1="-4.171" x2="-113.956" y2="1446.438"/>
		
			<line fill="none" stroke="#FAFAFA" stroke-width="3" stroke-miterlimit="10" x1="1344.336" y1="3.512" x2="-106.273" y2="1454.12"/>
		
			<line fill="none" stroke="#FAFAFA" stroke-width="3" stroke-miterlimit="10" x1="1352.018" y1="11.194" x2="-98.591" y2="1461.803"/>
		
			<line fill="none" stroke="#FAFAFA" stroke-width="3" stroke-miterlimit="10" x1="1359.699" y1="18.877" x2="-90.908" y2="1469.485"/>
		
			<line fill="none" stroke="#FAFAFA" stroke-width="3" stroke-miterlimit="10" x1="1367.383" y1="26.56" x2="-83.226" y2="1477.168"/>
		
			<line fill="none" stroke="#FAFAFA" stroke-width="3" stroke-miterlimit="10" x1="1375.064" y1="34.242" x2="-75.543" y2="1484.851"/>
		
			<line fill="none" stroke="#FAFAFA" stroke-width="3" stroke-miterlimit="10" x1="1382.748" y1="41.925" x2="-67.86" y2="1492.533"/>
		
			<line fill="none" stroke="#FAFAFA" stroke-width="3" stroke-miterlimit="10" x1="1390.43" y1="49.607" x2="-60.178" y2="1500.216"/>
		
			<line fill="none" stroke="#FAFAFA" stroke-width="3" stroke-miterlimit="10" x1="1403.699" y1="50.306" x2="-46.908" y2="1500.914"/>
		
			<line fill="none" stroke="#FAFAFA" stroke-width="3" stroke-miterlimit="10" x1="1411.383" y1="57.988" x2="-39.226" y2="1508.597"/>
		
			<line fill="none" stroke="#FAFAFA" stroke-width="3" stroke-miterlimit="10" x1="1419.065" y1="65.671" x2="-31.543" y2="1516.279"/>
		
			<line fill="none" stroke="#FAFAFA" stroke-width="3" stroke-miterlimit="10" x1="1426.748" y1="73.354" x2="-23.86" y2="1523.962"/>
		
			<line fill="none" stroke="#FAFAFA" stroke-width="3" stroke-miterlimit="10" x1="1434.43" y1="81.036" x2="-16.178" y2="1531.645"/>
		
			<line fill="none" stroke="#FAFAFA" stroke-width="3" stroke-miterlimit="10" x1="1442.113" y1="88.719" x2="-8.495" y2="1539.326"/>
		
			<line fill="none" stroke="#FAFAFA" stroke-width="3" stroke-miterlimit="10" x1="1449.795" y1="96.401" x2="-0.812" y2="1547.01"/>
		
			<line fill="none" stroke="#FAFAFA" stroke-width="3" stroke-miterlimit="10" x1="1457.479" y1="104.084" x2="6.87" y2="1554.691"/>
		
			<line fill="none" stroke="#FAFAFA" stroke-width="3" stroke-miterlimit="10" x1="1465.16" y1="111.767" x2="14.553" y2="1562.375"/>
		
			<line fill="none" stroke="#FAFAFA" stroke-width="3" stroke-miterlimit="10" x1="1472.843" y1="119.449" x2="22.235" y2="1570.057"/>
		
			<line fill="none" stroke="#FAFAFA" stroke-width="3" stroke-miterlimit="10" x1="1480.525" y1="127.132" x2="29.918" y2="1577.739"/>
		
			<line fill="none" stroke="#FAFAFA" stroke-width="3" stroke-miterlimit="10" x1="1488.208" y1="134.814" x2="37.601" y2="1585.422"/>
		
			<line fill="none" stroke="#FAFAFA" stroke-width="3" stroke-miterlimit="10" x1="1495.891" y1="142.497" x2="45.283" y2="1593.104"/>
		
			<line fill="none" stroke="#FAFAFA" stroke-width="3" stroke-miterlimit="10" x1="1503.573" y1="150.18" x2="52.965" y2="1600.787"/>
		
			<line fill="none" stroke="#FAFAFA" stroke-width="3" stroke-miterlimit="10" x1="1511.256" y1="157.861" x2="60.648" y2="1608.47"/>
		
			<line fill="none" stroke="#FAFAFA" stroke-width="3" stroke-miterlimit="10" x1="1518.938" y1="165.544" x2="68.33" y2="1616.152"/>
		
			<line fill="none" stroke="#FAFAFA" stroke-width="3" stroke-miterlimit="10" x1="1532.209" y1="166.243" x2="81.601" y2="1616.851"/>
		
			<line fill="none" stroke="#FAFAFA" stroke-width="3" stroke-miterlimit="10" x1="1539.891" y1="173.926" x2="89.283" y2="1624.533"/>
		
			<line fill="none" stroke="#FAFAFA" stroke-width="3" stroke-miterlimit="10" x1="1547.573" y1="181.607" x2="96.966" y2="1632.216"/>
		
			<line fill="none" stroke="#FAFAFA" stroke-width="3" stroke-miterlimit="10" x1="1555.256" y1="189.29" x2="104.648" y2="1639.898"/>
		
			<line fill="none" stroke="#FAFAFA" stroke-width="3" stroke-miterlimit="10" x1="1562.938" y1="196.973" x2="112.331" y2="1647.581"/>
	</g>
</g>
<g>
	<defs>
		<rect id="SVGID_3_" x="-840" y="-376.5" width="1280" height="244"/>
	</defs>
	<clipPath id="SVGID_4_">
		<use xlink:href="#SVGID_3_"  overflow="visible"/>
	</clipPath>
	<path clip-path="url(#SVGID_4_)" fill="#C0E2E7" d="M-766.625-330.51c3.81,0,7.433,0.793,10.719,2.217
		c-0.852-3.668-1.302-7.49-1.302-11.416c0-27.761,22.505-50.267,50.267-50.267c25.806,0,47.066,19.449,49.933,44.486
		c4.812-2.359,10.219-3.687,15.938-3.687c20.014,0,36.238,16.226,36.238,36.24c0,20.016-16.225,36.238-36.238,36.238
		c-0.412,0-0.562-0.01-0.97-0.022L-766-276.32v0.82c0,0-0.266,0-0.303,0c-14.921,0-27.169-12.589-27.169-27.505
		C-793.472-317.92-781.543-330.51-766.625-330.51z"/>
	<path clip-path="url(#SVGID_4_)" fill="#E4F2F4" d="M-326.225-128.255c-2.072,0-4.068,0.329-5.941,0.927
		c0.008-0.346,0.025-0.688,0.025-1.035c0-21.648-17.551-39.199-39.2-39.199c-8.606,0-16.56,2.781-23.028,7.483
		c-6.528-23.686-28.213-41.086-53.976-41.086c-30.929,0-56.001,25.074-56.001,56.002c0,2.769,0.209,5.489,0.598,8.15
		c-4.452-3.357-9.993-5.349-16-5.349c-14.689,0-26.599,11.908-26.599,26.6s11.909,26.463,26.599,26.463
		c0.578,0,1.148-0.201,1.719-0.201h67.307c0.791,0,1.581,0.06,2.378,0.06c0.799,0,1.591-0.06,2.38-0.06h72.485
		c0.71,0,1.421,0.06,2.139,0.06c0.716,0,1.429-0.06,2.139-0.06h41.786c0.396,0,0.789,0.199,1.191,0.199
		c10.795,0,19.547-8.684,19.547-19.477C-306.678-119.574-315.43-128.255-326.225-128.255z"/>
	<path clip-path="url(#SVGID_4_)" fill="#CFE8EC" d="M326.476-294.187c1.584,0,3.108,0.25,4.541,0.708
		c-0.009-0.264-0.021-0.525-0.021-0.791c0-16.539,13.41-29.948,29.948-29.948c6.576,0,12.653,2.125,17.594,5.716
		c4.989-18.094,21.555-31.388,41.236-31.388c23.631,0,42.784,19.155,42.784,42.785c0,2.115-0.159,4.192-0.456,6.227
		c3.402-2.565,7.635-4.087,12.225-4.087c11.221,0,20.32,9.099,20.32,20.323c0,11.224-9.1,20.756-20.32,20.756
		c-0.442,0-0.877,0.386-1.312,0.386h-51.422c-0.604,0-1.209,0.046-1.818,0.046s-1.214-0.046-1.818-0.046h-55.377
		c-0.541,0-1.084,0.046-1.635,0.046c-0.547,0-1.092-0.046-1.632-0.046h-31.927c-0.302,0-0.601-0.389-0.909-0.389
		c-8.246,0-14.933-6.901-14.933-15.149C311.543-287.285,318.229-294.187,326.476-294.187z"/>
	<path clip-path="url(#SVGID_4_)" fill="#DDEFF2" d="M145.078-218.202c-2.154,0-4.203,0.448-6.06,1.253
		c0.479-2.073,0.735-4.233,0.735-6.453c0-15.695-12.725-28.42-28.42-28.42c-14.588,0-26.609,10.995-28.229,25.15
		c-2.72-1.333-5.776-2.083-9.011-2.083c-11.315,0-20.488,9.173-20.488,20.487c0,11.317,9.173,20.488,20.488,20.488
		c0.233,0,0.222,0.527,0.454,0.52l69.983,0.76l0,0c0,0,0.277,0,0.299,0c8.432,0,15.393-7.419,15.393-15.852
		C160.223-210.783,153.512-218.202,145.078-218.202z"/>
</g>
</svg>
