<?xml version="1.0" encoding="utf-8"?>
<!-- Generator: Adobe Illustrator 16.0.0, SVG Export Plug-In . SVG Version: 6.00 Build 0)  -->
<!DOCTYPE svg PUBLIC "-//W3C//DTD SVG 1.1//EN" "http://www.w3.org/Graphics/SVG/1.1/DTD/svg11.dtd">
<svg version="1.1" id="Layer_1" xmlns="http://www.w3.org/2000/svg" xmlns:xlink="http://www.w3.org/1999/xlink" x="0px" y="0px"
	 width="33.016px" height="27.974px" viewBox="54.778 63.315 33.016 27.974" enable-background="new 54.778 63.315 33.016 27.974"
	 xml:space="preserve">
<g>
	<g>
		<path fill="#B7DDE3" d="M69.442,75.825H55.778c-0.552,0-1-0.448-1-1s0.448-1,1-1h13.664c1.917,0,3.561-2.468,3.561-4.489
			c0-1.898-1.522-4.021-3.561-4.021c-1.993,0-3.701,2.339-3.701,4.254c0,0.552-0.448,1-1,1s-1-0.448-1-1
			c0-2.892,2.49-6.254,5.701-6.254c2.962,0,5.561,2.814,5.561,6.021C75.002,72.337,72.573,75.825,69.442,75.825z"/>
	</g>
	<g>
		<path fill="#B7DDE3" d="M76.207,91.288c-4.021,0-7.17-2.956-7.17-6.73c0-0.553,0.448-1,1-1s1,0.447,1,1
			c0,2.652,2.271,4.73,5.17,4.73c2.821,0,5.031-2.122,5.031-4.831c0-2.684-2.116-4.632-5.031-4.632h-20.43c-0.552,0-1-0.447-1-1
			s0.448-1,1-1h20.576c0.026,0,0.053,0.001,0.078,0.003c3.896,0.104,6.807,2.919,6.807,6.629
			C83.239,88.287,80.15,91.288,76.207,91.288z"/>
	</g>
	<g>
		<path fill="#B7DDE3" d="M84.237,75.825h-7.459c-0.553,0-1-0.448-1-1s0.447-1,1-1h7.371c0.89,0,1.645-1.347,1.645-2.391
			c0-1.052-1.028-2.396-1.833-2.396c-0.887,0-1.976,1.193-1.976,2.164c0,0.552-0.447,1-1,1s-1-0.448-1-1
			c0-2.102,1.969-4.164,3.976-4.164c2.123,0,3.833,2.405,3.833,4.396C87.793,73.511,86.332,75.825,84.237,75.825z"/>
	</g>
</g>
</svg>
