<?xml version="1.0" encoding="utf-8"?>
<!-- Generator: Adobe Illustrator 16.0.0, SVG Export Plug-In . SVG Version: 6.00 Build 0)  -->
<!DOCTYPE svg PUBLIC "-//W3C//DTD SVG 1.1//EN" "http://www.w3.org/Graphics/SVG/1.1/DTD/svg11.dtd">
<svg version="1.1" id="Layer_1" xmlns="http://www.w3.org/2000/svg" xmlns:xlink="http://www.w3.org/1999/xlink" x="0px" y="0px"
	 width="142.555px" height="154.651px" viewBox="92.988 67.398 142.555 154.651"
	 enable-background="new 92.988 67.398 142.555 154.651" xml:space="preserve">
<g>
	<path fill="#B7DDE3" d="M123.125,157.691c-7.892,0-15.375-3.09-21.101-8.896c-5.724-5.805-8.932-13.395-9.033-21.456
		c-0.102-8.049,2.938-15.633,8.559-21.396s13.148-8.98,21.198-9.082c2.676-0.024,5.321,0.285,7.873,0.939
		c4.3-17.451,19.925-30.168,38.39-30.401c0.171-0.002,0.343-0.001,0.514-0.001c21.858,0,39.778,17.642,40.056,39.562
		c0.009,0.712-0.001,1.193-0.03,1.905c0.74-0.079,1.487-0.366,2.24-0.366c0.091,0,0.183,0,0.272,0
		c12.592,0,23.312,11.211,23.479,24.346c0.166,13.234-10.57,24.666-23.445,24.828l-0.368-0.093l-22.724-0.081
		c-0.002,0-0.003,0-0.004,0c-2.473,0-4.479-1.848-4.48-4.32c-0.002-2.475,2.003-4.404,4.477-4.406l23.043,0.017
		c7.823-0.099,14.645-7.599,14.541-15.831c-0.104-8.314-6.732-15.459-14.511-15.459c-0.055,0-0.109,0-0.164,0
		c-2.019,0-3.967,0.667-5.789,1.485c-1.545,0.693-3.346,0.564-4.657-0.502c-1.313-1.065-1.915-2.726-1.556-4.378
		c0.505-2.324,0.746-4.68,0.716-7.057c-0.215-17.018-14.128-30.702-31.097-30.702c-0.134,0-0.265,0.008-0.398,0.01
		c-15.818,0.199-28.952,12.201-30.549,27.912c-0.147,1.448-0.99,2.736-2.258,3.451c-1.27,0.714-2.806,0.769-4.121,0.146
		c-2.93-1.391-6.074-2.092-9.334-2.031c-5.658,0.071-10.948,2.341-14.897,6.39s-6.084,9.394-6.013,15.049
		c0.071,5.652,2.423,11.238,6.453,15.325c4.088,4.146,9.433,6.391,14.988,6.319l0.439-0.009c0.063-0.003,0.128-0.205,0.191-0.205
		l4.723-0.203c0.001,0,0.002,0,0.003,0c2.474,0,4.479,2.205,4.48,4.678c0.002,2.475-2.003,4.582-4.478,4.584l-4.629-0.135
		c-0.234,0.01-0.305-0.127-0.488-0.127h-0.141C123.372,157.5,123.248,157.691,123.125,157.691z"/>
</g>
<g>
	<path fill="#B7DDE3" d="M148.451,222.05c-0.642,0-1.29-0.137-1.9-0.422c-1.896-0.885-2.933-2.959-2.501-5.006l7.402-35.122H139.77
		c-1.4,0-2.722-0.652-3.573-1.765c-0.852-1.111-1.137-2.557-0.771-3.909l11.331-41.942c0.527-1.948,2.287-3.226,4.305-3.243
		l25.398-0.141c0.014,0,0.027,0,0.04,0c1.187,0,2.325,0.386,3.168,1.221c0.853,0.846,1.332,1.955,1.332,3.154
		c0,0.408-0.056,0.867-0.165,1.261l-7.399,26.52l14.555,0.018c1.722,0.003,3.29,0.984,4.041,2.533
		c0.752,1.548,0.555,3.387-0.508,4.74l-39.53,50.382C151.118,221.444,149.8,222.05,148.451,222.05z M145.646,172.5H157
		c1.356,0,2.641,0.611,3.495,1.665s1.188,2.436,0.908,3.763l-4.562,21.641l21.902-27.915l-11.239-0.019
		c-1.406-0.002-2.73-0.661-3.579-1.781c-0.85-1.121-1.126-2.573-0.749-3.928l7.402-26.539l-16.023,0.141L145.646,172.5z"/>
</g>
</svg>
