<?xml version="1.0" encoding="utf-8"?>
<!-- Generator: Adobe Illustrator 16.0.0, SVG Export Plug-In . SVG Version: 6.00 Build 0)  -->
<!DOCTYPE svg PUBLIC "-//W3C//DTD SVG 1.1//EN" "http://www.w3.org/Graphics/SVG/1.1/DTD/svg11.dtd">
<svg version="1.1" id="Layer_1" xmlns="http://www.w3.org/2000/svg" xmlns:xlink="http://www.w3.org/1999/xlink" x="0px" y="0px"
	 width="157.475px" height="124.284px" viewBox="-7.668 4.787 157.475 124.284"
	 enable-background="new -7.668 4.787 157.475 124.284" xml:space="preserve">
<g>
	<g>
		<path fill="#B7DDE3" d="M24.935,129.021c-0.258,0-0.725-0.021-1.171-0.044c-0.214-0.012-0.42-0.023-0.55-0.026
			c-0.104,0.004-0.303,0.006-0.505,0.006c-16.66,0-30-14.091-30.369-32.08C-8.018,79.496,5.833,65.064,23.214,64.706
			c2.681-0.057,5.328,0.222,7.891,0.825c4.466-18.059,20.576-31.288,39.711-31.682c22.992-0.463,42.183,18.067,42.651,40.935
			c0.013,0.603,0.013,1.205-0.001,1.808c0.64-0.062,1.283-0.101,1.932-0.114l0.463-0.005c13.092,0,24.393,11.837,24.679,25.726
			c0.286,13.917-11.11,26.746-24.39,26.746c-0.034,0-0.069,0-0.104,0l-0.289-0.098l-90.674,0.225
			C25.026,129.072,24.972,129.021,24.935,129.021z M23.247,118.944c0.206,0,0.613-0.018,1.038,0.005
			c0.229,0.012,0.466-0.005,0.627-0.005c0.032,0,0.064,0,0.096,0l90.933-0.242c7.814-0.162,14.772-7.979,14.599-16.421
			c-0.174-8.431-7.033-15.818-14.681-15.818l-0.257,0.008c-2.034,0.042-3.997,0.492-5.834,1.333
			c-1.717,0.786-3.728,0.539-5.201-0.638c-1.475-1.178-2.16-3.085-1.773-4.932c0.498-2.381,0.725-4.816,0.674-7.242
			C103.116,57.813,88.861,43.84,71.689,43.84c-0.222,0-0.444,0.002-0.668,0.007c-16.169,0.333-29.498,12.706-31.003,28.78
			c-0.151,1.618-1.08,3.062-2.489,3.87c-1.41,0.81-3.124,0.883-4.597,0.198c-2.849-1.324-5.895-1.996-9.054-1.996l-0.457,0.005
			C11.551,74.948,2.094,84.802,2.337,96.672c0.256,12.496,9.204,22.28,20.371,22.28l0.401-0.008
			C23.142,118.944,23.213,118.944,23.247,118.944z"/>
	</g>
	<g>
		<path fill="#B7DDE3" d="M127.412,90.892c-1.608,0-3.194-0.745-4.21-2.146c-1.684-2.323-1.165-5.571,1.157-7.255
			c13.838-10.028,18.892-28.687,12.018-44.366c-3.93-8.962-11.115-15.858-20.232-19.416c-9.116-3.558-19.076-3.352-28.041,0.579
			c-9.891,4.336-17.331,12.769-20.413,23.135c-0.818,2.75-3.711,4.315-6.46,3.499c-2.75-0.818-4.316-3.71-3.499-6.46
			c3.956-13.302,13.505-24.123,26.2-29.688c11.504-5.045,24.286-5.309,35.99-0.742c11.703,4.567,20.926,13.418,25.971,24.923
			c8.822,20.124,2.331,44.075-15.436,56.95C129.535,90.571,128.469,90.892,127.412,90.892z"/>
	</g>
</g>
</svg>
